<mxfile host="app.diagrams.net" modified="2020-08-25T05:52:20.018Z" agent="5.0 (Windows NT 10.0; Win64; x64) AppleWebKit/537.36 (KHTML, like Gecko) Chrome/84.0.4147.135 Safari/537.36" etag="WWs4F8Zp0_nIUzoDZKWP" version="13.6.4" type="github" pages="4">
  <diagram id="ntNjZDDkq73_ec1f_YK3" name="Diagrama Casos de Uso">
    <mxGraphModel dx="1483" dy="829" grid="1" gridSize="10" guides="1" tooltips="1" connect="1" arrows="1" fold="1" page="1" pageScale="1" pageWidth="1169" pageHeight="827" math="0" shadow="0">
      <root>
        <mxCell id="0" />
        <mxCell id="1" parent="0" />
        <mxCell id="lnSNaVBU82VKdu5e3Si3-83" style="edgeStyle=orthogonalEdgeStyle;rounded=0;orthogonalLoop=1;jettySize=auto;html=1;fontColor=#000000;fillColor=#647687;strokeColor=#314354;" parent="1" source="lnSNaVBU82VKdu5e3Si3-88" target="lnSNaVBU82VKdu5e3Si3-93" edge="1">
          <mxGeometry relative="1" as="geometry">
            <Array as="points">
              <mxPoint x="130" y="541" />
            </Array>
          </mxGeometry>
        </mxCell>
        <mxCell id="lnSNaVBU82VKdu5e3Si3-84" style="edgeStyle=orthogonalEdgeStyle;rounded=0;orthogonalLoop=1;jettySize=auto;html=1;entryX=0;entryY=0.5;entryDx=0;entryDy=0;fontColor=#000000;fillColor=#647687;strokeColor=#314354;" parent="1" source="lnSNaVBU82VKdu5e3Si3-88" target="lnSNaVBU82VKdu5e3Si3-91" edge="1">
          <mxGeometry relative="1" as="geometry">
            <Array as="points">
              <mxPoint x="130" y="428" />
            </Array>
          </mxGeometry>
        </mxCell>
        <mxCell id="lnSNaVBU82VKdu5e3Si3-85" style="edgeStyle=orthogonalEdgeStyle;rounded=0;orthogonalLoop=1;jettySize=auto;html=1;entryX=0;entryY=0.5;entryDx=0;entryDy=0;fontColor=#000000;fillColor=#647687;strokeColor=#314354;" parent="1" source="lnSNaVBU82VKdu5e3Si3-88" target="lnSNaVBU82VKdu5e3Si3-95" edge="1">
          <mxGeometry relative="1" as="geometry">
            <Array as="points">
              <mxPoint x="130" y="656" />
            </Array>
          </mxGeometry>
        </mxCell>
        <mxCell id="lnSNaVBU82VKdu5e3Si3-86" style="edgeStyle=orthogonalEdgeStyle;rounded=0;orthogonalLoop=1;jettySize=auto;html=1;fontColor=#000000;fillColor=#647687;strokeColor=#314354;" parent="1" source="lnSNaVBU82VKdu5e3Si3-88" target="lnSNaVBU82VKdu5e3Si3-97" edge="1">
          <mxGeometry relative="1" as="geometry">
            <Array as="points">
              <mxPoint x="291" y="206" />
              <mxPoint x="291" y="206" />
            </Array>
          </mxGeometry>
        </mxCell>
        <mxCell id="lnSNaVBU82VKdu5e3Si3-87" style="edgeStyle=orthogonalEdgeStyle;rounded=0;orthogonalLoop=1;jettySize=auto;html=1;entryX=0;entryY=0.5;entryDx=0;entryDy=0;fontColor=#000000;" parent="1" source="lnSNaVBU82VKdu5e3Si3-88" target="lnSNaVBU82VKdu5e3Si3-99" edge="1">
          <mxGeometry relative="1" as="geometry">
            <Array as="points">
              <mxPoint x="130" y="315" />
            </Array>
          </mxGeometry>
        </mxCell>
        <mxCell id="lnSNaVBU82VKdu5e3Si3-88" value="Usuario" style="shape=umlActor;verticalLabelPosition=bottom;verticalAlign=top;html=1;fillColor=#1ba1e2;strokeColor=#006EAF;" parent="1" vertex="1">
          <mxGeometry x="115" y="176" width="30" height="60" as="geometry" />
        </mxCell>
        <mxCell id="lnSNaVBU82VKdu5e3Si3-89" value="Autenticación" style="ellipse;whiteSpace=wrap;html=1;fillColor=#1ba1e2;fontColor=#ffffff;strokeColor=none;" parent="1" vertex="1">
          <mxGeometry x="601" y="393" width="140" height="70" as="geometry" />
        </mxCell>
        <mxCell id="lnSNaVBU82VKdu5e3Si3-90" value="&amp;lt;&amp;lt;Include&amp;gt;&amp;gt;" style="edgeStyle=orthogonalEdgeStyle;rounded=0;orthogonalLoop=1;jettySize=auto;html=1;fontColor=#000000;fillColor=#1ba1e2;strokeColor=#006EAF;dashed=1;" parent="1" source="lnSNaVBU82VKdu5e3Si3-91" target="lnSNaVBU82VKdu5e3Si3-89" edge="1">
          <mxGeometry relative="1" as="geometry" />
        </mxCell>
        <mxCell id="lnSNaVBU82VKdu5e3Si3-91" value="Solicitar Servicio" style="ellipse;whiteSpace=wrap;html=1;fillColor=#1ba1e2;fontColor=#ffffff;strokeColor=none;" parent="1" vertex="1">
          <mxGeometry x="335" y="393" width="140" height="70" as="geometry" />
        </mxCell>
        <mxCell id="lnSNaVBU82VKdu5e3Si3-92" value="&amp;lt;&amp;lt;Include&amp;gt;&amp;gt;" style="edgeStyle=orthogonalEdgeStyle;rounded=0;orthogonalLoop=1;jettySize=auto;html=1;fontColor=#000000;fillColor=#1ba1e2;strokeColor=#006EAF;dashed=1;" parent="1" source="lnSNaVBU82VKdu5e3Si3-93" target="lnSNaVBU82VKdu5e3Si3-89" edge="1">
          <mxGeometry x="-0.122" relative="1" as="geometry">
            <mxPoint x="1" as="offset" />
          </mxGeometry>
        </mxCell>
        <mxCell id="lnSNaVBU82VKdu5e3Si3-93" value="Calificar Servicio" style="ellipse;whiteSpace=wrap;html=1;fillColor=#1ba1e2;fontColor=#ffffff;strokeColor=none;" parent="1" vertex="1">
          <mxGeometry x="334" y="507" width="140" height="70" as="geometry" />
        </mxCell>
        <mxCell id="lnSNaVBU82VKdu5e3Si3-94" value="&amp;lt;&amp;lt;Include&amp;gt;&amp;gt;" style="edgeStyle=orthogonalEdgeStyle;rounded=0;orthogonalLoop=1;jettySize=auto;html=1;fontColor=#000000;fillColor=#1ba1e2;strokeColor=#006EAF;dashed=1;" parent="1" source="lnSNaVBU82VKdu5e3Si3-95" target="lnSNaVBU82VKdu5e3Si3-89" edge="1">
          <mxGeometry x="-0.3585" relative="1" as="geometry">
            <mxPoint x="1" as="offset" />
          </mxGeometry>
        </mxCell>
        <mxCell id="lnSNaVBU82VKdu5e3Si3-95" value="Ver estadisticas de Servicio" style="ellipse;whiteSpace=wrap;html=1;fillColor=#1ba1e2;fontColor=#ffffff;strokeColor=none;" parent="1" vertex="1">
          <mxGeometry x="335" y="621" width="140" height="70" as="geometry" />
        </mxCell>
        <mxCell id="lnSNaVBU82VKdu5e3Si3-96" value="&amp;lt;&amp;lt;Extend&amp;gt;&amp;gt;" style="edgeStyle=orthogonalEdgeStyle;orthogonalLoop=1;jettySize=auto;html=1;fontColor=#000000;fillColor=#1ba1e2;strokeColor=#006EAF;rounded=0;dashed=1;" parent="1" source="lnSNaVBU82VKdu5e3Si3-97" target="lnSNaVBU82VKdu5e3Si3-89" edge="1">
          <mxGeometry x="-0.567" relative="1" as="geometry">
            <mxPoint as="offset" />
          </mxGeometry>
        </mxCell>
        <mxCell id="lnSNaVBU82VKdu5e3Si3-97" value="Registrar Usuario" style="ellipse;whiteSpace=wrap;html=1;fillColor=#1ba1e2;fontColor=#ffffff;strokeColor=none;" parent="1" vertex="1">
          <mxGeometry x="335" y="166" width="140" height="70" as="geometry" />
        </mxCell>
        <mxCell id="lnSNaVBU82VKdu5e3Si3-98" value="&amp;lt;&amp;lt;Include&amp;gt;&amp;gt;" style="edgeStyle=orthogonalEdgeStyle;rounded=0;orthogonalLoop=1;jettySize=auto;html=1;fontColor=#000000;fillColor=#1ba1e2;strokeColor=#006EAF;dashed=1;" parent="1" source="lnSNaVBU82VKdu5e3Si3-99" target="lnSNaVBU82VKdu5e3Si3-89" edge="1">
          <mxGeometry x="-0.2947" relative="1" as="geometry">
            <mxPoint x="1" as="offset" />
          </mxGeometry>
        </mxCell>
        <mxCell id="lnSNaVBU82VKdu5e3Si3-99" value="Registrar Vehículo" style="ellipse;whiteSpace=wrap;html=1;fillColor=#1ba1e2;fontColor=#ffffff;strokeColor=none;" parent="1" vertex="1">
          <mxGeometry x="334" y="280" width="140" height="70" as="geometry" />
        </mxCell>
        <mxCell id="lnSNaVBU82VKdu5e3Si3-100" value="Registrar Usuario" style="ellipse;whiteSpace=wrap;html=1;fillColor=#1ba1e2;fontColor=#ffffff;strokeColor=none;" parent="1" vertex="1">
          <mxGeometry x="334" y="166" width="140" height="70" as="geometry" />
        </mxCell>
        <mxCell id="lnSNaVBU82VKdu5e3Si3-114" style="edgeStyle=orthogonalEdgeStyle;rounded=0;orthogonalLoop=1;jettySize=auto;html=1;entryX=1;entryY=0.5;entryDx=0;entryDy=0;" parent="1" target="lnSNaVBU82VKdu5e3Si3-109" edge="1">
          <mxGeometry relative="1" as="geometry">
            <mxPoint x="1020" y="166" as="sourcePoint" />
            <mxPoint x="939.9925766636018" y="261.00970873786406" as="targetPoint" />
            <Array as="points">
              <mxPoint x="985" y="166" />
              <mxPoint x="985" y="260" />
            </Array>
          </mxGeometry>
        </mxCell>
        <mxCell id="lnSNaVBU82VKdu5e3Si3-115" style="edgeStyle=orthogonalEdgeStyle;rounded=0;orthogonalLoop=1;jettySize=auto;html=1;entryX=1;entryY=0.5;entryDx=0;entryDy=0;" parent="1" source="lnSNaVBU82VKdu5e3Si3-104" target="lnSNaVBU82VKdu5e3Si3-108" edge="1">
          <mxGeometry relative="1" as="geometry" />
        </mxCell>
        <mxCell id="lnSNaVBU82VKdu5e3Si3-116" style="edgeStyle=orthogonalEdgeStyle;rounded=0;orthogonalLoop=1;jettySize=auto;html=1;entryX=1;entryY=0.5;entryDx=0;entryDy=0;" parent="1" source="lnSNaVBU82VKdu5e3Si3-104" target="lnSNaVBU82VKdu5e3Si3-110" edge="1">
          <mxGeometry relative="1" as="geometry" />
        </mxCell>
        <mxCell id="lnSNaVBU82VKdu5e3Si3-104" value="Administrador" style="shape=umlActor;verticalLabelPosition=bottom;verticalAlign=top;html=1;fillColor=#1ba1e2;strokeColor=#006EAF;" parent="1" vertex="1">
          <mxGeometry x="1025" y="136" width="30" height="60" as="geometry" />
        </mxCell>
        <mxCell id="lnSNaVBU82VKdu5e3Si3-112" value="&amp;lt;&amp;lt;Include&amp;gt;&amp;gt;" style="edgeStyle=orthogonalEdgeStyle;rounded=0;orthogonalLoop=1;jettySize=auto;html=1;dashed=1;fillColor=#dae8fc;strokeColor=#6c8ebf;" parent="1" source="lnSNaVBU82VKdu5e3Si3-108" target="lnSNaVBU82VKdu5e3Si3-89" edge="1">
          <mxGeometry x="0.0078" y="-8" relative="1" as="geometry">
            <mxPoint as="offset" />
          </mxGeometry>
        </mxCell>
        <mxCell id="lnSNaVBU82VKdu5e3Si3-108" value="Registrar Servicios" style="ellipse;whiteSpace=wrap;html=1;fillColor=#1ba1e2;fontColor=#ffffff;strokeColor=none;" parent="1" vertex="1">
          <mxGeometry x="805" y="393.5" width="140" height="70" as="geometry" />
        </mxCell>
        <mxCell id="lnSNaVBU82VKdu5e3Si3-111" value="&lt;span style=&quot;color: rgb(0 , 0 , 0) ; font-family: &amp;#34;helvetica&amp;#34; ; font-size: 11px ; font-style: normal ; font-weight: 400 ; letter-spacing: normal ; text-align: center ; text-indent: 0px ; text-transform: none ; word-spacing: 0px ; background-color: rgb(255 , 255 , 255) ; display: inline ; float: none&quot;&gt;&amp;lt;&amp;lt;Include&amp;gt;&amp;gt;&lt;/span&gt;" style="edgeStyle=orthogonalEdgeStyle;rounded=0;orthogonalLoop=1;jettySize=auto;html=1;fillColor=#dae8fc;strokeColor=#6c8ebf;dashed=1;" parent="1" source="lnSNaVBU82VKdu5e3Si3-109" target="lnSNaVBU82VKdu5e3Si3-89" edge="1">
          <mxGeometry x="-0.4745" relative="1" as="geometry">
            <mxPoint x="-1" as="offset" />
          </mxGeometry>
        </mxCell>
        <mxCell id="lnSNaVBU82VKdu5e3Si3-109" value="Registrar Productos" style="ellipse;whiteSpace=wrap;html=1;fillColor=#1ba1e2;fontColor=#ffffff;strokeColor=none;" parent="1" vertex="1">
          <mxGeometry x="805" y="225.5" width="140" height="70" as="geometry" />
        </mxCell>
        <mxCell id="lnSNaVBU82VKdu5e3Si3-113" value="&amp;lt;&amp;lt;Include&amp;gt;&amp;gt;" style="edgeStyle=orthogonalEdgeStyle;rounded=0;orthogonalLoop=1;jettySize=auto;html=1;dashed=1;fillColor=#dae8fc;strokeColor=#6c8ebf;" parent="1" source="lnSNaVBU82VKdu5e3Si3-110" target="lnSNaVBU82VKdu5e3Si3-89" edge="1">
          <mxGeometry x="-0.6246" relative="1" as="geometry">
            <mxPoint x="1" as="offset" />
          </mxGeometry>
        </mxCell>
        <mxCell id="lnSNaVBU82VKdu5e3Si3-110" value="Brindar seguimiento a Orden de Servicio" style="ellipse;whiteSpace=wrap;html=1;fillColor=#1ba1e2;fontColor=#ffffff;strokeColor=none;" parent="1" vertex="1">
          <mxGeometry x="805" y="560.5" width="140" height="70" as="geometry" />
        </mxCell>
      </root>
    </mxGraphModel>
  </diagram>
  <diagram id="vQz4shwP_uGOvYtv31wh" name="Diagrma de actividades">
    <mxGraphModel dx="2076" dy="2231" grid="1" gridSize="10" guides="1" tooltips="1" connect="1" arrows="1" fold="1" page="1" pageScale="1" pageWidth="827" pageHeight="1169" math="0" shadow="0">
      <root>
        <mxCell id="lR7XqGbU1CMXhv0G3DHX-0" />
        <mxCell id="lR7XqGbU1CMXhv0G3DHX-1" parent="lR7XqGbU1CMXhv0G3DHX-0" />
        <mxCell id="QwzlGerOrEWWregB6gI0-0" value="Diagrama de Actividades" style="swimlane;html=1;childLayout=stackLayout;startSize=20;rounded=0;shadow=0;comic=0;labelBackgroundColor=none;strokeWidth=1;fontFamily=Verdana;fontSize=12;align=center;fillColor=#f5f5f5;strokeColor=#666666;fontColor=#333333;" parent="lR7XqGbU1CMXhv0G3DHX-1" vertex="1">
          <mxGeometry x="39" y="-1130" width="750" height="1060" as="geometry" />
        </mxCell>
        <mxCell id="QwzlGerOrEWWregB6gI0-1" value="Usuario" style="swimlane;html=1;startSize=20;" parent="QwzlGerOrEWWregB6gI0-0" vertex="1">
          <mxGeometry y="20" width="250" height="1040" as="geometry" />
        </mxCell>
        <mxCell id="R9m7SX5SuaCjdbhSfKtI-14" value="Ver el seguimiento" style="whiteSpace=wrap;html=1;rounded=1;shadow=0;fontFamily=Verdana;strokeWidth=1;arcSize=50;comic=0;" parent="QwzlGerOrEWWregB6gI0-1" vertex="1">
          <mxGeometry x="65" y="700" width="120" height="39" as="geometry" />
        </mxCell>
        <mxCell id="R9m7SX5SuaCjdbhSfKtI-10" value="Llevar el carro al taller" style="rounded=1;whiteSpace=wrap;html=1;shadow=0;comic=0;labelBackgroundColor=none;strokeWidth=1;fontFamily=Verdana;fontSize=12;align=center;arcSize=50;" parent="QwzlGerOrEWWregB6gI0-1" vertex="1">
          <mxGeometry x="63.5" y="570" width="123" height="40" as="geometry" />
        </mxCell>
        <mxCell id="QwzlGerOrEWWregB6gI0-28" value="" style="ellipse;whiteSpace=wrap;html=1;rounded=0;shadow=0;comic=0;labelBackgroundColor=none;strokeWidth=1;fillColor=#000000;fontFamily=Verdana;fontSize=12;align=center;" parent="QwzlGerOrEWWregB6gI0-1" vertex="1">
          <mxGeometry x="105" y="40" width="40" height="40" as="geometry" />
        </mxCell>
        <mxCell id="QwzlGerOrEWWregB6gI0-29" value="Registrarse" style="rounded=1;whiteSpace=wrap;html=1;shadow=0;comic=0;labelBackgroundColor=none;strokeWidth=1;fontFamily=Verdana;fontSize=12;align=center;arcSize=50;" parent="QwzlGerOrEWWregB6gI0-1" vertex="1">
          <mxGeometry x="63.5" y="110" width="123" height="40" as="geometry" />
        </mxCell>
        <mxCell id="QwzlGerOrEWWregB6gI0-27" style="edgeStyle=orthogonalEdgeStyle;rounded=0;html=1;labelBackgroundColor=none;startArrow=none;startFill=0;startSize=5;endArrow=classicThin;endFill=1;endSize=5;jettySize=auto;orthogonalLoop=1;strokeWidth=1;fontFamily=Verdana;fontSize=12" parent="QwzlGerOrEWWregB6gI0-1" source="QwzlGerOrEWWregB6gI0-28" target="QwzlGerOrEWWregB6gI0-29" edge="1">
          <mxGeometry relative="1" as="geometry" />
        </mxCell>
        <mxCell id="R9m7SX5SuaCjdbhSfKtI-1" style="edgeStyle=orthogonalEdgeStyle;rounded=0;orthogonalLoop=1;jettySize=auto;html=1;" parent="QwzlGerOrEWWregB6gI0-1" source="x1ezec-b4LvJHvtq7dQ5-14" target="R9m7SX5SuaCjdbhSfKtI-0" edge="1">
          <mxGeometry relative="1" as="geometry" />
        </mxCell>
        <mxCell id="R9m7SX5SuaCjdbhSfKtI-2" value="Solicitar servicio" style="rounded=1;whiteSpace=wrap;html=1;shadow=0;comic=0;labelBackgroundColor=none;strokeWidth=1;fontFamily=Verdana;fontSize=12;align=center;arcSize=50;" parent="QwzlGerOrEWWregB6gI0-1" vertex="1">
          <mxGeometry x="63.5" y="480" width="123" height="40" as="geometry" />
        </mxCell>
        <mxCell id="x1ezec-b4LvJHvtq7dQ5-14" value="Ingreso a la Aplicación" style="rounded=1;whiteSpace=wrap;html=1;shadow=0;comic=0;labelBackgroundColor=none;strokeWidth=1;fontFamily=Verdana;fontSize=12;align=center;arcSize=50;" parent="QwzlGerOrEWWregB6gI0-1" vertex="1">
          <mxGeometry x="63.5" y="320" width="123" height="40" as="geometry" />
        </mxCell>
        <mxCell id="x1ezec-b4LvJHvtq7dQ5-15" style="edgeStyle=orthogonalEdgeStyle;rounded=0;orthogonalLoop=1;jettySize=auto;html=1;" parent="QwzlGerOrEWWregB6gI0-1" source="x1ezec-b4LvJHvtq7dQ5-9" target="x1ezec-b4LvJHvtq7dQ5-14" edge="1">
          <mxGeometry relative="1" as="geometry" />
        </mxCell>
        <mxCell id="x1ezec-b4LvJHvtq7dQ5-9" value="Confirma correo" style="rounded=1;whiteSpace=wrap;html=1;shadow=0;comic=0;labelBackgroundColor=none;strokeWidth=1;fontFamily=Verdana;fontSize=12;align=center;arcSize=50;" parent="QwzlGerOrEWWregB6gI0-1" vertex="1">
          <mxGeometry x="63.5" y="220" width="123" height="40" as="geometry" />
        </mxCell>
        <mxCell id="R9m7SX5SuaCjdbhSfKtI-3" style="edgeStyle=orthogonalEdgeStyle;rounded=0;orthogonalLoop=1;jettySize=auto;html=1;" parent="QwzlGerOrEWWregB6gI0-1" source="R9m7SX5SuaCjdbhSfKtI-0" target="R9m7SX5SuaCjdbhSfKtI-2" edge="1">
          <mxGeometry relative="1" as="geometry" />
        </mxCell>
        <mxCell id="R9m7SX5SuaCjdbhSfKtI-0" value="Registrar sus vehículos" style="rounded=1;whiteSpace=wrap;html=1;shadow=0;comic=0;labelBackgroundColor=none;strokeWidth=1;fontFamily=Verdana;fontSize=12;align=center;arcSize=50;" parent="QwzlGerOrEWWregB6gI0-1" vertex="1">
          <mxGeometry x="63.5" y="406" width="123" height="40" as="geometry" />
        </mxCell>
        <mxCell id="R9m7SX5SuaCjdbhSfKtI-19" value="" style="edgeStyle=orthogonalEdgeStyle;rounded=0;orthogonalLoop=1;jettySize=auto;html=1;" parent="QwzlGerOrEWWregB6gI0-1" source="R9m7SX5SuaCjdbhSfKtI-14" target="R9m7SX5SuaCjdbhSfKtI-18" edge="1">
          <mxGeometry relative="1" as="geometry" />
        </mxCell>
        <mxCell id="R9m7SX5SuaCjdbhSfKtI-18" value="Recojer el Carro" style="whiteSpace=wrap;html=1;rounded=1;shadow=0;fontFamily=Verdana;strokeWidth=1;arcSize=50;comic=0;" parent="QwzlGerOrEWWregB6gI0-1" vertex="1">
          <mxGeometry x="65" y="780" width="120" height="41.5" as="geometry" />
        </mxCell>
        <mxCell id="R9m7SX5SuaCjdbhSfKtI-21" value="" style="edgeStyle=orthogonalEdgeStyle;rounded=0;orthogonalLoop=1;jettySize=auto;html=1;" parent="QwzlGerOrEWWregB6gI0-1" source="R9m7SX5SuaCjdbhSfKtI-18" target="R9m7SX5SuaCjdbhSfKtI-20" edge="1">
          <mxGeometry relative="1" as="geometry" />
        </mxCell>
        <mxCell id="obpiP515GeGJ3iu5x6NE-2" style="edgeStyle=orthogonalEdgeStyle;rounded=0;orthogonalLoop=1;jettySize=auto;html=1;" parent="QwzlGerOrEWWregB6gI0-1" source="R9m7SX5SuaCjdbhSfKtI-20" target="obpiP515GeGJ3iu5x6NE-1" edge="1">
          <mxGeometry relative="1" as="geometry" />
        </mxCell>
        <mxCell id="R9m7SX5SuaCjdbhSfKtI-20" value="Calificar el servicio" style="whiteSpace=wrap;html=1;rounded=1;shadow=0;fontFamily=Verdana;strokeWidth=1;arcSize=50;comic=0;" parent="QwzlGerOrEWWregB6gI0-1" vertex="1">
          <mxGeometry x="65" y="870" width="120" height="41.5" as="geometry" />
        </mxCell>
        <mxCell id="obpiP515GeGJ3iu5x6NE-1" value="" style="ellipse;html=1;shape=endState;fillColor=#000000;aspect=fixed;" parent="QwzlGerOrEWWregB6gI0-1" vertex="1">
          <mxGeometry x="105" y="970" width="40" height="40" as="geometry" />
        </mxCell>
        <mxCell id="QwzlGerOrEWWregB6gI0-10" value="Sistema" style="swimlane;html=1;startSize=20;" parent="QwzlGerOrEWWregB6gI0-0" vertex="1">
          <mxGeometry x="250" y="20" width="250" height="1040" as="geometry" />
        </mxCell>
        <mxCell id="x1ezec-b4LvJHvtq7dQ5-7" value="Envia correo de confirmación" style="rounded=1;whiteSpace=wrap;html=1;shadow=0;comic=0;labelBackgroundColor=none;strokeWidth=1;fontFamily=Verdana;fontSize=12;align=center;arcSize=50;" parent="QwzlGerOrEWWregB6gI0-10" vertex="1">
          <mxGeometry x="17" y="220" width="100" height="40" as="geometry" />
        </mxCell>
        <mxCell id="x1ezec-b4LvJHvtq7dQ5-6" style="edgeStyle=orthogonalEdgeStyle;rounded=0;orthogonalLoop=1;jettySize=auto;html=1;" parent="QwzlGerOrEWWregB6gI0-10" source="x1ezec-b4LvJHvtq7dQ5-0" target="QwzlGerOrEWWregB6gI0-4" edge="1">
          <mxGeometry relative="1" as="geometry">
            <Array as="points">
              <mxPoint x="183" y="200" />
              <mxPoint x="183" y="200" />
            </Array>
          </mxGeometry>
        </mxCell>
        <mxCell id="x1ezec-b4LvJHvtq7dQ5-8" style="edgeStyle=orthogonalEdgeStyle;rounded=0;orthogonalLoop=1;jettySize=auto;html=1;" parent="QwzlGerOrEWWregB6gI0-10" source="x1ezec-b4LvJHvtq7dQ5-0" target="x1ezec-b4LvJHvtq7dQ5-7" edge="1">
          <mxGeometry relative="1" as="geometry">
            <Array as="points">
              <mxPoint x="67" y="200" />
              <mxPoint x="67" y="200" />
            </Array>
          </mxGeometry>
        </mxCell>
        <mxCell id="R9m7SX5SuaCjdbhSfKtI-4" value="Notificar al Administrador" style="rounded=1;whiteSpace=wrap;html=1;shadow=0;comic=0;labelBackgroundColor=none;strokeWidth=1;fontFamily=Verdana;fontSize=12;align=center;arcSize=50;" parent="QwzlGerOrEWWregB6gI0-10" vertex="1">
          <mxGeometry x="67.5" y="480" width="123" height="40" as="geometry" />
        </mxCell>
        <mxCell id="QwzlGerOrEWWregB6gI0-4" value="Autentica usuario" style="rounded=1;whiteSpace=wrap;html=1;shadow=0;comic=0;labelBackgroundColor=none;strokeWidth=1;fontFamily=Verdana;fontSize=12;align=center;arcSize=50;" parent="QwzlGerOrEWWregB6gI0-10" vertex="1">
          <mxGeometry x="133" y="220" width="100" height="40" as="geometry" />
        </mxCell>
        <mxCell id="x1ezec-b4LvJHvtq7dQ5-0" value="" style="whiteSpace=wrap;html=1;rounded=0;shadow=0;comic=0;labelBackgroundColor=none;strokeWidth=1;fillColor=#000000;fontFamily=Verdana;fontSize=12;align=center;rotation=0;" parent="QwzlGerOrEWWregB6gI0-10" vertex="1">
          <mxGeometry x="55.5" y="170" width="147" height="10" as="geometry" />
        </mxCell>
        <mxCell id="QwzlGerOrEWWregB6gI0-26" value="Administrador" style="swimlane;html=1;startSize=20;" parent="QwzlGerOrEWWregB6gI0-0" vertex="1">
          <mxGeometry x="500" y="20" width="250" height="1040" as="geometry" />
        </mxCell>
        <mxCell id="R9m7SX5SuaCjdbhSfKtI-7" value="Confirmar la solicitud" style="rounded=1;whiteSpace=wrap;html=1;shadow=0;comic=0;labelBackgroundColor=none;strokeWidth=1;fontFamily=Verdana;fontSize=12;align=center;arcSize=50;" parent="QwzlGerOrEWWregB6gI0-26" vertex="1">
          <mxGeometry x="63.5" y="480" width="123" height="40" as="geometry" />
        </mxCell>
        <mxCell id="R9m7SX5SuaCjdbhSfKtI-12" value="Dar seguimiento al servicio" style="whiteSpace=wrap;html=1;rounded=1;shadow=0;fontFamily=Verdana;strokeWidth=1;arcSize=50;comic=0;" parent="QwzlGerOrEWWregB6gI0-26" vertex="1">
          <mxGeometry x="65" y="640" width="120" height="39" as="geometry" />
        </mxCell>
        <mxCell id="QwzlGerOrEWWregB6gI0-55" style="edgeStyle=orthogonalEdgeStyle;rounded=0;html=1;labelBackgroundColor=none;startArrow=none;startFill=0;startSize=5;endArrow=classicThin;endFill=1;endSize=5;jettySize=auto;orthogonalLoop=1;strokeWidth=1;fontFamily=Verdana;fontSize=12" parent="QwzlGerOrEWWregB6gI0-0" source="QwzlGerOrEWWregB6gI0-29" edge="1">
          <mxGeometry relative="1" as="geometry">
            <Array as="points">
              <mxPoint x="375" y="145" />
            </Array>
            <mxPoint x="375" y="190" as="targetPoint" />
          </mxGeometry>
        </mxCell>
        <mxCell id="x1ezec-b4LvJHvtq7dQ5-10" style="edgeStyle=orthogonalEdgeStyle;rounded=0;orthogonalLoop=1;jettySize=auto;html=1;" parent="QwzlGerOrEWWregB6gI0-0" source="x1ezec-b4LvJHvtq7dQ5-7" target="x1ezec-b4LvJHvtq7dQ5-9" edge="1">
          <mxGeometry relative="1" as="geometry" />
        </mxCell>
        <mxCell id="R9m7SX5SuaCjdbhSfKtI-5" style="edgeStyle=orthogonalEdgeStyle;rounded=0;orthogonalLoop=1;jettySize=auto;html=1;" parent="QwzlGerOrEWWregB6gI0-0" source="R9m7SX5SuaCjdbhSfKtI-2" target="R9m7SX5SuaCjdbhSfKtI-4" edge="1">
          <mxGeometry relative="1" as="geometry" />
        </mxCell>
        <mxCell id="R9m7SX5SuaCjdbhSfKtI-8" style="edgeStyle=orthogonalEdgeStyle;rounded=0;orthogonalLoop=1;jettySize=auto;html=1;" parent="QwzlGerOrEWWregB6gI0-0" source="R9m7SX5SuaCjdbhSfKtI-4" target="R9m7SX5SuaCjdbhSfKtI-7" edge="1">
          <mxGeometry relative="1" as="geometry" />
        </mxCell>
        <mxCell id="R9m7SX5SuaCjdbhSfKtI-11" style="edgeStyle=orthogonalEdgeStyle;rounded=0;orthogonalLoop=1;jettySize=auto;html=1;entryX=1;entryY=0.5;entryDx=0;entryDy=0;" parent="QwzlGerOrEWWregB6gI0-0" source="R9m7SX5SuaCjdbhSfKtI-7" target="R9m7SX5SuaCjdbhSfKtI-10" edge="1">
          <mxGeometry relative="1" as="geometry">
            <Array as="points">
              <mxPoint x="625" y="610" />
            </Array>
          </mxGeometry>
        </mxCell>
        <mxCell id="R9m7SX5SuaCjdbhSfKtI-13" value="" style="edgeStyle=orthogonalEdgeStyle;rounded=0;orthogonalLoop=1;jettySize=auto;html=1;" parent="QwzlGerOrEWWregB6gI0-0" source="R9m7SX5SuaCjdbhSfKtI-10" target="R9m7SX5SuaCjdbhSfKtI-12" edge="1">
          <mxGeometry relative="1" as="geometry">
            <Array as="points">
              <mxPoint x="125" y="680" />
            </Array>
          </mxGeometry>
        </mxCell>
        <mxCell id="R9m7SX5SuaCjdbhSfKtI-17" style="edgeStyle=orthogonalEdgeStyle;rounded=0;orthogonalLoop=1;jettySize=auto;html=1;" parent="QwzlGerOrEWWregB6gI0-0" source="R9m7SX5SuaCjdbhSfKtI-12" target="R9m7SX5SuaCjdbhSfKtI-14" edge="1">
          <mxGeometry relative="1" as="geometry">
            <Array as="points">
              <mxPoint x="625" y="740" />
            </Array>
          </mxGeometry>
        </mxCell>
      </root>
    </mxGraphModel>
  </diagram>
  <diagram id="MSyIZBkSuXineH_Eokw3" name="Diagrama de Secuencia">
    <mxGraphModel dx="1038" dy="531" grid="1" gridSize="10" guides="1" tooltips="1" connect="1" arrows="1" fold="1" page="1" pageScale="1" pageWidth="827" pageHeight="1169" math="0" shadow="0">
      <root>
        <mxCell id="DYir2wJjlvnxcsO95Mj_-0" />
        <mxCell id="DYir2wJjlvnxcsO95Mj_-1" parent="DYir2wJjlvnxcsO95Mj_-0" />
        <mxCell id="BdWk6724S9JPOoB0Ze1Z-4" value=":Sistema" style="shape=umlLifeline;perimeter=lifelinePerimeter;container=1;collapsible=0;recursiveResize=0;rounded=0;shadow=0;strokeWidth=1;" parent="DYir2wJjlvnxcsO95Mj_-1" vertex="1">
          <mxGeometry x="230" y="70" width="100" height="770" as="geometry" />
        </mxCell>
        <mxCell id="BdWk6724S9JPOoB0Ze1Z-5" value="" style="points=[];perimeter=orthogonalPerimeter;rounded=0;shadow=0;strokeWidth=1;" parent="BdWk6724S9JPOoB0Ze1Z-4" vertex="1">
          <mxGeometry x="45" y="80" width="10" height="160" as="geometry" />
        </mxCell>
        <mxCell id="-8DnGwXJLK2kDL8rhNiJ-6" value="" style="html=1;points=[];perimeter=orthogonalPerimeter;" parent="BdWk6724S9JPOoB0Ze1Z-4" vertex="1">
          <mxGeometry x="50" y="110" width="10" height="40" as="geometry" />
        </mxCell>
        <mxCell id="-8DnGwXJLK2kDL8rhNiJ-7" value="Validación de datos" style="edgeStyle=orthogonalEdgeStyle;html=1;align=left;spacingLeft=2;endArrow=block;rounded=0;entryX=1;entryY=0;" parent="BdWk6724S9JPOoB0Ze1Z-4" target="-8DnGwXJLK2kDL8rhNiJ-6" edge="1">
          <mxGeometry relative="1" as="geometry">
            <mxPoint x="55" y="90" as="sourcePoint" />
            <Array as="points">
              <mxPoint x="80" y="90" />
            </Array>
          </mxGeometry>
        </mxCell>
        <mxCell id="-8DnGwXJLK2kDL8rhNiJ-17" value="" style="html=1;points=[];perimeter=orthogonalPerimeter;" parent="BdWk6724S9JPOoB0Ze1Z-4" vertex="1">
          <mxGeometry x="45" y="290" width="10" height="40" as="geometry" />
        </mxCell>
        <mxCell id="-8DnGwXJLK2kDL8rhNiJ-30" value="" style="html=1;points=[];perimeter=orthogonalPerimeter;" parent="BdWk6724S9JPOoB0Ze1Z-4" vertex="1">
          <mxGeometry x="45" y="350" width="10" height="30" as="geometry" />
        </mxCell>
        <mxCell id="-8DnGwXJLK2kDL8rhNiJ-49" value="" style="html=1;points=[];perimeter=orthogonalPerimeter;" parent="BdWk6724S9JPOoB0Ze1Z-4" vertex="1">
          <mxGeometry x="45" y="560" width="10" height="210" as="geometry" />
        </mxCell>
        <mxCell id="-8DnGwXJLK2kDL8rhNiJ-50" value="" style="html=1;points=[];perimeter=orthogonalPerimeter;" parent="BdWk6724S9JPOoB0Ze1Z-4" vertex="1">
          <mxGeometry x="50" y="600" width="10" height="20" as="geometry" />
        </mxCell>
        <mxCell id="-8DnGwXJLK2kDL8rhNiJ-51" value="Validar Datos" style="edgeStyle=orthogonalEdgeStyle;html=1;align=left;spacingLeft=2;endArrow=block;rounded=0;entryX=1;entryY=0;" parent="BdWk6724S9JPOoB0Ze1Z-4" source="-8DnGwXJLK2kDL8rhNiJ-49" target="-8DnGwXJLK2kDL8rhNiJ-50" edge="1">
          <mxGeometry relative="1" as="geometry">
            <mxPoint x="40" y="580" as="sourcePoint" />
            <Array as="points">
              <mxPoint x="80" y="580" />
              <mxPoint x="80" y="600" />
            </Array>
          </mxGeometry>
        </mxCell>
        <mxCell id="BdWk6724S9JPOoB0Ze1Z-7" value="Datos para registrarse" style="verticalAlign=bottom;endArrow=block;entryX=0;entryY=0;shadow=0;strokeWidth=1;" parent="DYir2wJjlvnxcsO95Mj_-1" source="-8DnGwXJLK2kDL8rhNiJ-3" target="BdWk6724S9JPOoB0Ze1Z-5" edge="1">
          <mxGeometry relative="1" as="geometry">
            <mxPoint x="105" y="150.00000000000006" as="sourcePoint" />
          </mxGeometry>
        </mxCell>
        <mxCell id="BdWk6724S9JPOoB0Ze1Z-10" value="Servidor de Correos" style="shape=umlLifeline;perimeter=lifelinePerimeter;whiteSpace=wrap;html=1;container=1;collapsible=0;recursiveResize=0;outlineConnect=0;" parent="DYir2wJjlvnxcsO95Mj_-1" vertex="1">
          <mxGeometry x="580" y="70" width="100" height="770" as="geometry" />
        </mxCell>
        <mxCell id="-8DnGwXJLK2kDL8rhNiJ-15" value="" style="html=1;points=[];perimeter=orthogonalPerimeter;" parent="BdWk6724S9JPOoB0Ze1Z-10" vertex="1">
          <mxGeometry x="45" y="230" width="10" height="40" as="geometry" />
        </mxCell>
        <mxCell id="-8DnGwXJLK2kDL8rhNiJ-0" value="Usuario" style="shape=umlLifeline;perimeter=lifelinePerimeter;whiteSpace=wrap;html=1;container=1;collapsible=0;recursiveResize=0;outlineConnect=0;" parent="DYir2wJjlvnxcsO95Mj_-1" vertex="1">
          <mxGeometry x="40" y="70" width="100" height="770" as="geometry" />
        </mxCell>
        <mxCell id="-8DnGwXJLK2kDL8rhNiJ-3" value="" style="html=1;points=[];perimeter=orthogonalPerimeter;" parent="-8DnGwXJLK2kDL8rhNiJ-0" vertex="1">
          <mxGeometry x="45" y="70" width="10" height="670" as="geometry" />
        </mxCell>
        <mxCell id="-8DnGwXJLK2kDL8rhNiJ-1" value=":Base de datos" style="shape=umlLifeline;perimeter=lifelinePerimeter;container=1;collapsible=0;recursiveResize=0;rounded=0;shadow=0;strokeWidth=1;" parent="DYir2wJjlvnxcsO95Mj_-1" vertex="1">
          <mxGeometry x="400" y="70" width="100" height="770" as="geometry" />
        </mxCell>
        <mxCell id="-8DnGwXJLK2kDL8rhNiJ-2" value="" style="points=[];perimeter=orthogonalPerimeter;rounded=0;shadow=0;strokeWidth=1;" parent="-8DnGwXJLK2kDL8rhNiJ-1" vertex="1">
          <mxGeometry x="45" y="170" width="10" height="30" as="geometry" />
        </mxCell>
        <mxCell id="-8DnGwXJLK2kDL8rhNiJ-32" value="" style="html=1;points=[];perimeter=orthogonalPerimeter;" parent="-8DnGwXJLK2kDL8rhNiJ-1" vertex="1">
          <mxGeometry x="45" y="330" width="10" height="30" as="geometry" />
        </mxCell>
        <mxCell id="-8DnGwXJLK2kDL8rhNiJ-42" value="" style="points=[];perimeter=orthogonalPerimeter;rounded=0;shadow=0;strokeWidth=1;" parent="-8DnGwXJLK2kDL8rhNiJ-1" vertex="1">
          <mxGeometry x="45" y="460" width="10" height="30" as="geometry" />
        </mxCell>
        <mxCell id="-8DnGwXJLK2kDL8rhNiJ-43" value="Almacenamiento de Datos" style="verticalAlign=bottom;endArrow=block;shadow=0;strokeWidth=1;" parent="-8DnGwXJLK2kDL8rhNiJ-1" target="-8DnGwXJLK2kDL8rhNiJ-42" edge="1">
          <mxGeometry relative="1" as="geometry">
            <mxPoint x="-115" y="460" as="sourcePoint" />
            <mxPoint x="34" y="439.8000000000002" as="targetPoint" />
            <Array as="points">
              <mxPoint y="460" />
            </Array>
          </mxGeometry>
        </mxCell>
        <mxCell id="-8DnGwXJLK2kDL8rhNiJ-46" value="" style="points=[];perimeter=orthogonalPerimeter;rounded=0;shadow=0;strokeWidth=1;" parent="-8DnGwXJLK2kDL8rhNiJ-1" vertex="1">
          <mxGeometry x="45" y="620" width="10" height="30" as="geometry" />
        </mxCell>
        <mxCell id="PTxIlChow_R4tFrcUj1L-0" value="" style="points=[];perimeter=orthogonalPerimeter;rounded=0;shadow=0;strokeWidth=1;" parent="-8DnGwXJLK2kDL8rhNiJ-1" vertex="1">
          <mxGeometry x="45" y="739.6" width="10" height="30" as="geometry" />
        </mxCell>
        <mxCell id="PTxIlChow_R4tFrcUj1L-2" value="Almacenamiento exitoso" style="html=1;verticalAlign=bottom;endArrow=open;dashed=1;endSize=8;" parent="-8DnGwXJLK2kDL8rhNiJ-1" source="PTxIlChow_R4tFrcUj1L-0" edge="1">
          <mxGeometry relative="1" as="geometry">
            <mxPoint x="30" y="769.6" as="sourcePoint" />
            <mxPoint x="-115" y="769.6" as="targetPoint" />
            <Array as="points">
              <mxPoint x="20" y="769.6" />
            </Array>
          </mxGeometry>
        </mxCell>
        <mxCell id="-8DnGwXJLK2kDL8rhNiJ-8" value="[En caso de error, notificar]" style="html=1;verticalAlign=bottom;endArrow=open;dashed=1;endSize=8;" parent="DYir2wJjlvnxcsO95Mj_-1" source="-8DnGwXJLK2kDL8rhNiJ-6" target="-8DnGwXJLK2kDL8rhNiJ-3" edge="1">
          <mxGeometry relative="1" as="geometry">
            <mxPoint x="260" y="210" as="sourcePoint" />
            <mxPoint x="180" y="210" as="targetPoint" />
          </mxGeometry>
        </mxCell>
        <mxCell id="-8DnGwXJLK2kDL8rhNiJ-11" value="Almacenamiento de Datos" style="verticalAlign=bottom;endArrow=block;shadow=0;strokeWidth=1;" parent="DYir2wJjlvnxcsO95Mj_-1" source="BdWk6724S9JPOoB0Ze1Z-5" target="-8DnGwXJLK2kDL8rhNiJ-2" edge="1">
          <mxGeometry relative="1" as="geometry">
            <mxPoint x="254" y="219.80000000000013" as="sourcePoint" />
            <mxPoint x="434" y="219.80000000000013" as="targetPoint" />
            <Array as="points">
              <mxPoint x="400" y="240" />
            </Array>
          </mxGeometry>
        </mxCell>
        <mxCell id="-8DnGwXJLK2kDL8rhNiJ-13" value="Almacenamiento exitoso" style="html=1;verticalAlign=bottom;endArrow=open;dashed=1;endSize=8;" parent="DYir2wJjlvnxcsO95Mj_-1" edge="1">
          <mxGeometry relative="1" as="geometry">
            <mxPoint x="445" y="266" as="sourcePoint" />
            <mxPoint x="285" y="266" as="targetPoint" />
            <Array as="points">
              <mxPoint x="410" y="266" />
            </Array>
          </mxGeometry>
        </mxCell>
        <mxCell id="-8DnGwXJLK2kDL8rhNiJ-14" value="Envío de correo para confirmación" style="html=1;verticalAlign=bottom;endArrow=block;" parent="DYir2wJjlvnxcsO95Mj_-1" target="-8DnGwXJLK2kDL8rhNiJ-15" edge="1">
          <mxGeometry width="80" relative="1" as="geometry">
            <mxPoint x="285" y="305" as="sourcePoint" />
            <mxPoint x="440" y="305" as="targetPoint" />
          </mxGeometry>
        </mxCell>
        <mxCell id="-8DnGwXJLK2kDL8rhNiJ-16" value="Correo al cliente" style="html=1;verticalAlign=bottom;endArrow=open;dashed=1;endSize=8;" parent="DYir2wJjlvnxcsO95Mj_-1" source="-8DnGwXJLK2kDL8rhNiJ-15" target="-8DnGwXJLK2kDL8rhNiJ-3" edge="1">
          <mxGeometry relative="1" as="geometry">
            <mxPoint x="590" y="340" as="sourcePoint" />
            <mxPoint x="510" y="340" as="targetPoint" />
            <Array as="points">
              <mxPoint x="400" y="340" />
            </Array>
          </mxGeometry>
        </mxCell>
        <mxCell id="-8DnGwXJLK2kDL8rhNiJ-20" value="Confirmar correo" style="html=1;verticalAlign=bottom;endArrow=block;" parent="DYir2wJjlvnxcsO95Mj_-1" source="-8DnGwXJLK2kDL8rhNiJ-3" target="-8DnGwXJLK2kDL8rhNiJ-17" edge="1">
          <mxGeometry width="80" relative="1" as="geometry">
            <mxPoint x="110" y="360" as="sourcePoint" />
            <mxPoint x="210" y="360" as="targetPoint" />
          </mxGeometry>
        </mxCell>
        <mxCell id="-8DnGwXJLK2kDL8rhNiJ-22" value="Ingresar al App" style="html=1;verticalAlign=bottom;endArrow=block;" parent="DYir2wJjlvnxcsO95Mj_-1" source="-8DnGwXJLK2kDL8rhNiJ-3" target="-8DnGwXJLK2kDL8rhNiJ-30" edge="1">
          <mxGeometry width="80" relative="1" as="geometry">
            <mxPoint x="100" y="420" as="sourcePoint" />
            <mxPoint x="180" y="420" as="targetPoint" />
          </mxGeometry>
        </mxCell>
        <mxCell id="-8DnGwXJLK2kDL8rhNiJ-31" value="Almacenar Confirmación" style="html=1;verticalAlign=bottom;endArrow=block;" parent="DYir2wJjlvnxcsO95Mj_-1" target="-8DnGwXJLK2kDL8rhNiJ-32" edge="1">
          <mxGeometry width="80" relative="1" as="geometry">
            <mxPoint x="280" y="400" as="sourcePoint" />
            <mxPoint x="360" y="400" as="targetPoint" />
          </mxGeometry>
        </mxCell>
        <mxCell id="-8DnGwXJLK2kDL8rhNiJ-36" value="Validar credenciales" style="html=1;verticalAlign=bottom;endArrow=open;dashed=1;endSize=8;" parent="DYir2wJjlvnxcsO95Mj_-1" target="-8DnGwXJLK2kDL8rhNiJ-3" edge="1">
          <mxGeometry relative="1" as="geometry">
            <mxPoint x="280" y="450" as="sourcePoint" />
            <mxPoint x="200" y="450" as="targetPoint" />
          </mxGeometry>
        </mxCell>
        <mxCell id="-8DnGwXJLK2kDL8rhNiJ-37" value="Registrar vehículo" style="html=1;verticalAlign=bottom;endArrow=block;" parent="DYir2wJjlvnxcsO95Mj_-1" source="-8DnGwXJLK2kDL8rhNiJ-3" target="-8DnGwXJLK2kDL8rhNiJ-38" edge="1">
          <mxGeometry width="80" relative="1" as="geometry">
            <mxPoint x="100" y="490" as="sourcePoint" />
            <mxPoint x="180" y="490" as="targetPoint" />
          </mxGeometry>
        </mxCell>
        <mxCell id="-8DnGwXJLK2kDL8rhNiJ-38" value="" style="html=1;points=[];perimeter=orthogonalPerimeter;" parent="DYir2wJjlvnxcsO95Mj_-1" vertex="1">
          <mxGeometry x="275" y="470" width="10" height="130" as="geometry" />
        </mxCell>
        <mxCell id="-8DnGwXJLK2kDL8rhNiJ-39" value="" style="html=1;points=[];perimeter=orthogonalPerimeter;" parent="DYir2wJjlvnxcsO95Mj_-1" vertex="1">
          <mxGeometry x="280" y="510" width="10" height="20" as="geometry" />
        </mxCell>
        <mxCell id="-8DnGwXJLK2kDL8rhNiJ-40" value="Validar Datos" style="edgeStyle=orthogonalEdgeStyle;html=1;align=left;spacingLeft=2;endArrow=block;rounded=0;entryX=1;entryY=0;" parent="DYir2wJjlvnxcsO95Mj_-1" target="-8DnGwXJLK2kDL8rhNiJ-39" edge="1">
          <mxGeometry relative="1" as="geometry">
            <mxPoint x="285" y="490" as="sourcePoint" />
            <Array as="points">
              <mxPoint x="310" y="490" />
            </Array>
          </mxGeometry>
        </mxCell>
        <mxCell id="-8DnGwXJLK2kDL8rhNiJ-41" value="[En caso de error, notificar]" style="html=1;verticalAlign=bottom;endArrow=open;dashed=1;endSize=8;" parent="DYir2wJjlvnxcsO95Mj_-1" edge="1">
          <mxGeometry relative="1" as="geometry">
            <mxPoint x="280" y="530" as="sourcePoint" />
            <mxPoint x="95" y="530" as="targetPoint" />
          </mxGeometry>
        </mxCell>
        <mxCell id="-8DnGwXJLK2kDL8rhNiJ-44" value="Almacenamiento exitoso" style="html=1;verticalAlign=bottom;endArrow=open;dashed=1;endSize=8;" parent="DYir2wJjlvnxcsO95Mj_-1" target="-8DnGwXJLK2kDL8rhNiJ-38" edge="1">
          <mxGeometry relative="1" as="geometry">
            <mxPoint x="445" y="560" as="sourcePoint" />
            <mxPoint x="220" y="560" as="targetPoint" />
          </mxGeometry>
        </mxCell>
        <mxCell id="-8DnGwXJLK2kDL8rhNiJ-45" value="Creación Exitosa" style="html=1;verticalAlign=bottom;endArrow=open;dashed=1;endSize=8;" parent="DYir2wJjlvnxcsO95Mj_-1" target="-8DnGwXJLK2kDL8rhNiJ-3" edge="1">
          <mxGeometry relative="1" as="geometry">
            <mxPoint x="275" y="570" as="sourcePoint" />
            <mxPoint x="115" y="570" as="targetPoint" />
          </mxGeometry>
        </mxCell>
        <mxCell id="-8DnGwXJLK2kDL8rhNiJ-47" value="Almacenamiento de Datos" style="verticalAlign=bottom;endArrow=block;shadow=0;strokeWidth=1;" parent="DYir2wJjlvnxcsO95Mj_-1" source="-8DnGwXJLK2kDL8rhNiJ-50" target="-8DnGwXJLK2kDL8rhNiJ-46" edge="1">
          <mxGeometry relative="1" as="geometry">
            <mxPoint x="270" y="690" as="sourcePoint" />
            <mxPoint x="19" y="599.8000000000002" as="targetPoint" />
            <Array as="points">
              <mxPoint x="385" y="690" />
            </Array>
          </mxGeometry>
        </mxCell>
        <mxCell id="-8DnGwXJLK2kDL8rhNiJ-48" value="Solicitar Servicio" style="html=1;verticalAlign=bottom;endArrow=block;" parent="DYir2wJjlvnxcsO95Mj_-1" source="-8DnGwXJLK2kDL8rhNiJ-3" target="-8DnGwXJLK2kDL8rhNiJ-49" edge="1">
          <mxGeometry width="80" relative="1" as="geometry">
            <mxPoint x="80" y="630" as="sourcePoint" />
            <mxPoint x="165" y="650" as="targetPoint" />
          </mxGeometry>
        </mxCell>
        <mxCell id="-8DnGwXJLK2kDL8rhNiJ-53" value="Almacenamiento exitoso" style="html=1;verticalAlign=bottom;endArrow=open;dashed=1;endSize=8;" parent="DYir2wJjlvnxcsO95Mj_-1" source="-8DnGwXJLK2kDL8rhNiJ-46" target="-8DnGwXJLK2kDL8rhNiJ-49" edge="1">
          <mxGeometry relative="1" as="geometry">
            <mxPoint x="430" y="720" as="sourcePoint" />
            <mxPoint x="205" y="720" as="targetPoint" />
            <Array as="points">
              <mxPoint x="420" y="720" />
            </Array>
          </mxGeometry>
        </mxCell>
        <mxCell id="-8DnGwXJLK2kDL8rhNiJ-54" value="Servicio Solicitado" style="html=1;verticalAlign=bottom;endArrow=open;dashed=1;endSize=8;" parent="DYir2wJjlvnxcsO95Mj_-1" source="-8DnGwXJLK2kDL8rhNiJ-49" target="-8DnGwXJLK2kDL8rhNiJ-3" edge="1">
          <mxGeometry relative="1" as="geometry">
            <mxPoint x="260" y="730" as="sourcePoint" />
            <mxPoint x="80" y="730" as="targetPoint" />
            <Array as="points">
              <mxPoint x="210" y="740" />
            </Array>
          </mxGeometry>
        </mxCell>
        <mxCell id="wcABSSBxilSIUpQ8aFWr-0" value="Calificar el servicio" style="html=1;verticalAlign=bottom;endArrow=block;" parent="DYir2wJjlvnxcsO95Mj_-1" edge="1">
          <mxGeometry width="80" relative="1" as="geometry">
            <mxPoint x="95" y="800" as="sourcePoint" />
            <mxPoint x="275" y="800" as="targetPoint" />
          </mxGeometry>
        </mxCell>
        <mxCell id="PTxIlChow_R4tFrcUj1L-1" value="Almacenamiento de Datos" style="verticalAlign=bottom;endArrow=block;shadow=0;strokeWidth=1;" parent="DYir2wJjlvnxcsO95Mj_-1" source="-8DnGwXJLK2kDL8rhNiJ-49" target="PTxIlChow_R4tFrcUj1L-0" edge="1">
          <mxGeometry relative="1" as="geometry">
            <mxPoint x="290" y="809.6" as="sourcePoint" />
            <mxPoint x="19" y="719.4000000000002" as="targetPoint" />
            <Array as="points">
              <mxPoint x="385" y="809.6" />
            </Array>
          </mxGeometry>
        </mxCell>
      </root>
    </mxGraphModel>
  </diagram>
  <diagram id="3IxuRfB0wva1aa3_hREr" name="Diagrmas de Clases">
    <mxGraphModel dx="1038" dy="580" grid="1" gridSize="10" guides="1" tooltips="1" connect="1" arrows="1" fold="1" page="1" pageScale="1" pageWidth="827" pageHeight="1169" math="0" shadow="0">
      <root>
        <mxCell id="3NEA08iB7-uPyu0g2pBj-0" />
        <mxCell id="3NEA08iB7-uPyu0g2pBj-1" parent="3NEA08iB7-uPyu0g2pBj-0" />
        <mxCell id="NpS8czq447sHkz6InZv8-13" value="Usuario" style="swimlane;fontStyle=1;align=center;verticalAlign=top;childLayout=stackLayout;horizontal=1;startSize=26;horizontalStack=0;resizeParent=1;resizeParentMax=0;resizeLast=0;collapsible=1;marginBottom=0;fillColor=#ffffff;gradientColor=#ffffff;" parent="3NEA08iB7-uPyu0g2pBj-1" vertex="1">
          <mxGeometry x="320" y="40" width="170" height="162" as="geometry" />
        </mxCell>
        <mxCell id="NpS8czq447sHkz6InZv8-14" value="+ Nombre: varchar" style="text;strokeColor=none;fillColor=none;align=left;verticalAlign=middle;spacingLeft=4;spacingRight=4;overflow=hidden;rotatable=0;points=[[0,0.5],[1,0.5]];portConstraint=eastwest;" parent="NpS8czq447sHkz6InZv8-13" vertex="1">
          <mxGeometry y="26" width="170" height="20" as="geometry" />
        </mxCell>
        <mxCell id="NpS8czq447sHkz6InZv8-19" value="+ Apellido: varchar" style="text;strokeColor=none;fillColor=none;align=left;verticalAlign=middle;spacingLeft=4;spacingRight=4;overflow=hidden;rotatable=0;points=[[0,0.5],[1,0.5]];portConstraint=eastwest;" parent="NpS8czq447sHkz6InZv8-13" vertex="1">
          <mxGeometry y="46" width="170" height="20" as="geometry" />
        </mxCell>
        <mxCell id="NpS8czq447sHkz6InZv8-21" value="+ Telefono: varchar" style="text;strokeColor=none;fillColor=none;align=left;verticalAlign=middle;spacingLeft=4;spacingRight=4;overflow=hidden;rotatable=0;points=[[0,0.5],[1,0.5]];portConstraint=eastwest;" parent="NpS8czq447sHkz6InZv8-13" vertex="1">
          <mxGeometry y="66" width="170" height="20" as="geometry" />
        </mxCell>
        <mxCell id="NpS8czq447sHkz6InZv8-20" value="+ Correo: varchar" style="text;strokeColor=none;fillColor=none;align=left;verticalAlign=middle;spacingLeft=4;spacingRight=4;overflow=hidden;rotatable=0;points=[[0,0.5],[1,0.5]];portConstraint=eastwest;" parent="NpS8czq447sHkz6InZv8-13" vertex="1">
          <mxGeometry y="86" width="170" height="20" as="geometry" />
        </mxCell>
        <mxCell id="NpS8czq447sHkz6InZv8-22" value="+++" style="text;strokeColor=none;fillColor=none;align=left;verticalAlign=middle;spacingLeft=4;spacingRight=4;overflow=hidden;rotatable=0;points=[[0,0.5],[1,0.5]];portConstraint=eastwest;fontSize=12;horizontal=1;labelPosition=center;verticalLabelPosition=middle;textDirection=ltr;labelBackgroundColor=none;labelBorderColor=none;whiteSpace=wrap;" parent="NpS8czq447sHkz6InZv8-13" vertex="1">
          <mxGeometry y="106" width="170" height="15" as="geometry" />
        </mxCell>
        <mxCell id="NpS8czq447sHkz6InZv8-15" value="" style="line;strokeWidth=1;fillColor=none;align=left;verticalAlign=middle;spacingTop=-1;spacingLeft=3;spacingRight=3;rotatable=0;labelPosition=right;points=[];portConstraint=eastwest;" parent="NpS8czq447sHkz6InZv8-13" vertex="1">
          <mxGeometry y="121" width="170" height="1" as="geometry" />
        </mxCell>
        <mxCell id="NpS8czq447sHkz6InZv8-23" value="+ iniciarSesion()" style="text;strokeColor=none;fillColor=none;align=left;verticalAlign=middle;spacingLeft=4;spacingRight=4;overflow=hidden;rotatable=0;points=[[0,0.5],[1,0.5]];portConstraint=eastwest;" parent="NpS8czq447sHkz6InZv8-13" vertex="1">
          <mxGeometry y="122" width="170" height="20" as="geometry" />
        </mxCell>
        <mxCell id="NpS8czq447sHkz6InZv8-24" value="+ cerrarSesion()" style="text;strokeColor=none;fillColor=none;align=left;verticalAlign=middle;spacingLeft=4;spacingRight=4;overflow=hidden;rotatable=0;points=[[0,0.5],[1,0.5]];portConstraint=eastwest;" parent="NpS8czq447sHkz6InZv8-13" vertex="1">
          <mxGeometry y="142" width="170" height="20" as="geometry" />
        </mxCell>
        <mxCell id="NpS8czq447sHkz6InZv8-45" value="" style="endArrow=block;endFill=0;html=1;fontSize=12;edgeStyle=elbowEdgeStyle;elbow=vertical;endSize=16;entryX=0.396;entryY=1.022;entryDx=0;entryDy=0;entryPerimeter=0;" parent="3NEA08iB7-uPyu0g2pBj-1" target="NpS8czq447sHkz6InZv8-24" edge="1">
          <mxGeometry width="160" relative="1" as="geometry">
            <mxPoint x="185" y="279" as="sourcePoint" />
            <mxPoint x="386.64" y="222" as="targetPoint" />
          </mxGeometry>
        </mxCell>
        <mxCell id="NpS8czq447sHkz6InZv8-112" value="Registra" style="edgeStyle=elbowEdgeStyle;orthogonalLoop=1;jettySize=auto;html=1;endArrow=none;endFill=0;endSize=13;strokeWidth=1;fontSize=12;" parent="3NEA08iB7-uPyu0g2pBj-1" source="NpS8czq447sHkz6InZv8-25" target="NpS8czq447sHkz6InZv8-92" edge="1">
          <mxGeometry y="-18" relative="1" as="geometry">
            <mxPoint x="18" y="-18" as="offset" />
          </mxGeometry>
        </mxCell>
        <mxCell id="NpS8czq447sHkz6InZv8-117" value="*" style="edgeLabel;html=1;align=center;verticalAlign=middle;resizable=0;points=[];fontSize=12;" parent="NpS8czq447sHkz6InZv8-112" vertex="1" connectable="0">
          <mxGeometry x="0.79" y="-2" relative="1" as="geometry">
            <mxPoint x="6.95" y="-0.19" as="offset" />
          </mxGeometry>
        </mxCell>
        <mxCell id="NpS8czq447sHkz6InZv8-115" value="Registra" style="edgeStyle=elbowEdgeStyle;orthogonalLoop=1;jettySize=auto;html=1;endArrow=none;endFill=0;endSize=13;strokeWidth=1;fontSize=12;" parent="3NEA08iB7-uPyu0g2pBj-1" source="NpS8czq447sHkz6InZv8-25" target="NpS8czq447sHkz6InZv8-102" edge="1">
          <mxGeometry x="-0.3651" relative="1" as="geometry">
            <Array as="points">
              <mxPoint x="60" y="540" />
            </Array>
            <mxPoint as="offset" />
          </mxGeometry>
        </mxCell>
        <mxCell id="NpS8czq447sHkz6InZv8-118" value="*" style="edgeLabel;html=1;align=center;verticalAlign=middle;resizable=0;points=[];fontSize=12;" parent="NpS8czq447sHkz6InZv8-115" vertex="1" connectable="0">
          <mxGeometry x="0.9571" y="-1" relative="1" as="geometry">
            <mxPoint x="5" y="-9.5" as="offset" />
          </mxGeometry>
        </mxCell>
        <mxCell id="NpS8czq447sHkz6InZv8-25" value="Administrador" style="swimlane;fontStyle=1;align=center;verticalAlign=top;childLayout=stackLayout;horizontal=1;startSize=26;horizontalStack=0;resizeParent=1;resizeParentMax=0;resizeLast=0;collapsible=1;marginBottom=0;fillColor=#ffffff;gradientColor=#ffffff;" parent="3NEA08iB7-uPyu0g2pBj-1" vertex="1">
          <mxGeometry x="100" y="280" width="170" height="87" as="geometry" />
        </mxCell>
        <mxCell id="NpS8czq447sHkz6InZv8-26" value="+ Admin: booleano" style="text;strokeColor=none;fillColor=none;align=left;verticalAlign=middle;spacingLeft=4;spacingRight=4;overflow=hidden;rotatable=0;points=[[0,0.5],[1,0.5]];portConstraint=eastwest;" parent="NpS8czq447sHkz6InZv8-25" vertex="1">
          <mxGeometry y="26" width="170" height="20" as="geometry" />
        </mxCell>
        <mxCell id="NpS8czq447sHkz6InZv8-31" value="" style="line;strokeWidth=1;fillColor=none;align=left;verticalAlign=middle;spacingTop=-1;spacingLeft=3;spacingRight=3;rotatable=0;labelPosition=right;points=[];portConstraint=eastwest;" parent="NpS8czq447sHkz6InZv8-25" vertex="1">
          <mxGeometry y="46" width="170" height="1" as="geometry" />
        </mxCell>
        <mxCell id="NpS8czq447sHkz6InZv8-32" value="+ registrarProductos()" style="text;strokeColor=none;fillColor=none;align=left;verticalAlign=middle;spacingLeft=4;spacingRight=4;overflow=hidden;rotatable=0;points=[[0,0.5],[1,0.5]];portConstraint=eastwest;" parent="NpS8czq447sHkz6InZv8-25" vertex="1">
          <mxGeometry y="47" width="170" height="20" as="geometry" />
        </mxCell>
        <mxCell id="NpS8czq447sHkz6InZv8-48" value="+ registrarServicios()" style="text;strokeColor=none;fillColor=none;align=left;verticalAlign=middle;spacingLeft=4;spacingRight=4;overflow=hidden;rotatable=0;points=[[0,0.5],[1,0.5]];portConstraint=eastwest;" parent="NpS8czq447sHkz6InZv8-25" vertex="1">
          <mxGeometry y="67" width="170" height="20" as="geometry" />
        </mxCell>
        <mxCell id="NpS8czq447sHkz6InZv8-46" style="edgeStyle=elbowEdgeStyle;orthogonalLoop=1;jettySize=auto;html=1;fontSize=12;endArrow=block;endFill=0;strokeWidth=1;endSize=16;entryX=0.58;entryY=1.008;entryDx=0;entryDy=0;entryPerimeter=0;elbow=vertical;rounded=1;" parent="3NEA08iB7-uPyu0g2pBj-1" source="NpS8czq447sHkz6InZv8-35" target="NpS8czq447sHkz6InZv8-24" edge="1">
          <mxGeometry relative="1" as="geometry">
            <mxPoint x="410" y="222" as="targetPoint" />
          </mxGeometry>
        </mxCell>
        <mxCell id="NpS8czq447sHkz6InZv8-69" value="Solicita" style="edgeStyle=elbowEdgeStyle;orthogonalLoop=1;jettySize=auto;html=1;endArrow=none;endFill=0;endSize=13;strokeWidth=1;fontSize=12;" parent="3NEA08iB7-uPyu0g2pBj-1" source="NpS8czq447sHkz6InZv8-35" target="NpS8czq447sHkz6InZv8-61" edge="1">
          <mxGeometry y="-37" relative="1" as="geometry">
            <mxPoint x="37" y="-37" as="offset" />
          </mxGeometry>
        </mxCell>
        <mxCell id="NpS8czq447sHkz6InZv8-72" value="1" style="edgeLabel;html=1;align=center;verticalAlign=middle;resizable=0;points=[];fontSize=12;" parent="NpS8czq447sHkz6InZv8-69" vertex="1" connectable="0">
          <mxGeometry y="-78" relative="1" as="geometry">
            <mxPoint x="82.71" y="-96.86" as="offset" />
          </mxGeometry>
        </mxCell>
        <mxCell id="NpS8czq447sHkz6InZv8-73" value="*" style="edgeLabel;html=1;align=center;verticalAlign=middle;resizable=0;points=[];fontSize=12;" parent="NpS8czq447sHkz6InZv8-69" vertex="1" connectable="0">
          <mxGeometry x="0.8943" relative="1" as="geometry">
            <mxPoint x="4.71" as="offset" />
          </mxGeometry>
        </mxCell>
        <mxCell id="NpS8czq447sHkz6InZv8-35" value="Cliente" style="swimlane;fontStyle=1;align=center;verticalAlign=top;childLayout=stackLayout;horizontal=1;startSize=26;horizontalStack=0;resizeParent=1;resizeParentMax=0;resizeLast=0;collapsible=1;marginBottom=0;fillColor=#ffffff;gradientColor=#ffffff;" parent="3NEA08iB7-uPyu0g2pBj-1" vertex="1">
          <mxGeometry x="520" y="280" width="240" height="124" as="geometry" />
        </mxCell>
        <mxCell id="NpS8czq447sHkz6InZv8-40" value="+ AuthProvider: varchar" style="text;strokeColor=none;fillColor=none;align=left;verticalAlign=middle;spacingLeft=4;spacingRight=4;overflow=hidden;rotatable=0;points=[[0,0.5],[1,0.5]];portConstraint=eastwest;fontSize=12;horizontal=1;labelPosition=center;verticalLabelPosition=middle;textDirection=ltr;labelBackgroundColor=none;labelBorderColor=none;whiteSpace=wrap;" parent="NpS8czq447sHkz6InZv8-35" vertex="1">
          <mxGeometry y="26" width="240" height="20" as="geometry" />
        </mxCell>
        <mxCell id="NpS8czq447sHkz6InZv8-41" value="" style="line;strokeWidth=1;fillColor=none;align=left;verticalAlign=middle;spacingTop=-1;spacingLeft=3;spacingRight=3;rotatable=0;labelPosition=right;points=[];portConstraint=eastwest;horizontal=1;fontSize=12;" parent="NpS8czq447sHkz6InZv8-35" vertex="1">
          <mxGeometry y="46" width="240" height="1" as="geometry" />
        </mxCell>
        <mxCell id="NpS8czq447sHkz6InZv8-43" value="+ registrarVehículo(Vehículo)" style="text;strokeColor=none;fillColor=none;align=left;verticalAlign=middle;spacingLeft=4;spacingRight=4;overflow=hidden;rotatable=0;points=[[0,0.5],[1,0.5]];portConstraint=eastwest;" parent="NpS8czq447sHkz6InZv8-35" vertex="1">
          <mxGeometry y="47" width="240" height="20" as="geometry" />
        </mxCell>
        <mxCell id="NpS8czq447sHkz6InZv8-47" value="+ solicitarOrden(Vehículo, Fecha, Servicios)" style="text;strokeColor=none;fillColor=none;align=left;verticalAlign=middle;spacingLeft=4;spacingRight=4;overflow=hidden;rotatable=0;points=[[0,0.5],[1,0.5]];portConstraint=eastwest;horizontal=1;whiteSpace=wrap;" parent="NpS8czq447sHkz6InZv8-35" vertex="1">
          <mxGeometry y="67" width="240" height="37" as="geometry" />
        </mxCell>
        <mxCell id="NpS8czq447sHkz6InZv8-50" value="+ calificarServicio(Orden)" style="text;strokeColor=none;fillColor=none;align=left;verticalAlign=middle;spacingLeft=4;spacingRight=4;overflow=hidden;rotatable=0;points=[[0,0.5],[1,0.5]];portConstraint=eastwest;" parent="NpS8czq447sHkz6InZv8-35" vertex="1">
          <mxGeometry y="104" width="240" height="20" as="geometry" />
        </mxCell>
        <mxCell id="NpS8czq447sHkz6InZv8-60" value="Posee" style="edgeStyle=elbowEdgeStyle;orthogonalLoop=1;jettySize=auto;html=1;endArrow=none;endFill=0;strokeWidth=1;fontSize=12;endSize=13;" parent="3NEA08iB7-uPyu0g2pBj-1" source="NpS8czq447sHkz6InZv8-35" target="NpS8czq447sHkz6InZv8-51" edge="1">
          <mxGeometry x="-0.2006" relative="1" as="geometry">
            <mxPoint as="offset" />
          </mxGeometry>
        </mxCell>
        <mxCell id="NpS8czq447sHkz6InZv8-70" value="1" style="edgeLabel;html=1;align=center;verticalAlign=middle;resizable=0;points=[];fontSize=12;" parent="NpS8czq447sHkz6InZv8-60" vertex="1" connectable="0">
          <mxGeometry x="-0.9062" y="-2" relative="1" as="geometry">
            <mxPoint x="-6.86" y="-13" as="offset" />
          </mxGeometry>
        </mxCell>
        <mxCell id="NpS8czq447sHkz6InZv8-71" value="1 .. *" style="edgeLabel;html=1;align=center;verticalAlign=middle;resizable=0;points=[];fontSize=12;" parent="NpS8czq447sHkz6InZv8-60" vertex="1" connectable="0">
          <mxGeometry x="0.9256" y="-3" relative="1" as="geometry">
            <mxPoint x="9.43" y="-11" as="offset" />
          </mxGeometry>
        </mxCell>
        <mxCell id="NpS8czq447sHkz6InZv8-74" value="Atiende" style="edgeStyle=elbowEdgeStyle;orthogonalLoop=1;jettySize=auto;html=1;endArrow=none;endFill=0;endSize=13;strokeWidth=1;fontSize=12;" parent="3NEA08iB7-uPyu0g2pBj-1" source="NpS8czq447sHkz6InZv8-51" target="NpS8czq447sHkz6InZv8-61" edge="1">
          <mxGeometry x="0.3443" relative="1" as="geometry">
            <Array as="points">
              <mxPoint x="945" y="600" />
            </Array>
            <mxPoint as="offset" />
          </mxGeometry>
        </mxCell>
        <mxCell id="NpS8czq447sHkz6InZv8-75" value="1" style="edgeLabel;html=1;align=center;verticalAlign=middle;resizable=0;points=[];fontSize=12;" parent="NpS8czq447sHkz6InZv8-74" vertex="1" connectable="0">
          <mxGeometry x="-0.9457" relative="1" as="geometry">
            <mxPoint x="-5" y="-2.8" as="offset" />
          </mxGeometry>
        </mxCell>
        <mxCell id="NpS8czq447sHkz6InZv8-76" value="1" style="edgeLabel;html=1;align=center;verticalAlign=middle;resizable=0;points=[];fontSize=12;" parent="NpS8czq447sHkz6InZv8-74" vertex="1" connectable="0">
          <mxGeometry x="0.929" y="3" relative="1" as="geometry">
            <mxPoint x="-8" y="-13" as="offset" />
          </mxGeometry>
        </mxCell>
        <mxCell id="NpS8czq447sHkz6InZv8-119" style="edgeStyle=elbowEdgeStyle;orthogonalLoop=1;jettySize=auto;html=1;endArrow=none;endFill=0;endSize=13;strokeWidth=1;fontSize=12;" parent="3NEA08iB7-uPyu0g2pBj-1" source="NpS8czq447sHkz6InZv8-61" target="NpS8czq447sHkz6InZv8-92" edge="1">
          <mxGeometry relative="1" as="geometry" />
        </mxCell>
        <mxCell id="NpS8czq447sHkz6InZv8-121" value="1 .. *" style="edgeLabel;html=1;align=center;verticalAlign=middle;resizable=0;points=[];fontSize=12;" parent="NpS8czq447sHkz6InZv8-119" vertex="1" connectable="0">
          <mxGeometry x="0.9591" y="-1" relative="1" as="geometry">
            <mxPoint x="11.7" y="-10.5" as="offset" />
          </mxGeometry>
        </mxCell>
        <mxCell id="NpS8czq447sHkz6InZv8-120" value="Contiene" style="edgeStyle=elbowEdgeStyle;orthogonalLoop=1;jettySize=auto;html=1;endArrow=none;endFill=0;endSize=13;strokeWidth=1;fontSize=12;" parent="3NEA08iB7-uPyu0g2pBj-1" source="NpS8czq447sHkz6InZv8-61" target="NpS8czq447sHkz6InZv8-102" edge="1">
          <mxGeometry x="-0.6117" relative="1" as="geometry">
            <mxPoint as="offset" />
          </mxGeometry>
        </mxCell>
        <mxCell id="NpS8czq447sHkz6InZv8-122" value="1 .. *" style="edgeLabel;html=1;align=center;verticalAlign=middle;resizable=0;points=[];fontSize=12;" parent="NpS8czq447sHkz6InZv8-120" vertex="1" connectable="0">
          <mxGeometry x="0.8934" relative="1" as="geometry">
            <mxPoint x="1" y="-10.5" as="offset" />
          </mxGeometry>
        </mxCell>
        <mxCell id="AcMNE2pFFCveSsyDQFpb-34" value="Tiene" style="edgeStyle=orthogonalEdgeStyle;rounded=0;orthogonalLoop=1;jettySize=auto;html=1;startArrow=none;startFill=0;endArrow=none;endFill=0;" parent="3NEA08iB7-uPyu0g2pBj-1" source="NpS8czq447sHkz6InZv8-61" target="AcMNE2pFFCveSsyDQFpb-14" edge="1">
          <mxGeometry x="-0.1364" relative="1" as="geometry">
            <mxPoint as="offset" />
          </mxGeometry>
        </mxCell>
        <mxCell id="AcMNE2pFFCveSsyDQFpb-40" value="1" style="edgeLabel;html=1;align=center;verticalAlign=middle;resizable=0;points=[];" parent="AcMNE2pFFCveSsyDQFpb-34" vertex="1" connectable="0">
          <mxGeometry x="-0.8496" y="-2" relative="1" as="geometry">
            <mxPoint x="7" y="4.9" as="offset" />
          </mxGeometry>
        </mxCell>
        <mxCell id="AcMNE2pFFCveSsyDQFpb-41" value="1" style="edgeLabel;html=1;align=center;verticalAlign=middle;resizable=0;points=[];" parent="AcMNE2pFFCveSsyDQFpb-34" vertex="1" connectable="0">
          <mxGeometry x="0.8301" relative="1" as="geometry">
            <mxPoint x="5" as="offset" />
          </mxGeometry>
        </mxCell>
        <mxCell id="NpS8czq447sHkz6InZv8-61" value="Orden" style="swimlane;fontStyle=1;align=center;verticalAlign=top;childLayout=stackLayout;horizontal=1;startSize=26;horizontalStack=0;resizeParent=1;resizeParentMax=0;resizeLast=0;collapsible=1;marginBottom=0;fillColor=#ffffff;gradientColor=#ffffff;" parent="3NEA08iB7-uPyu0g2pBj-1" vertex="1">
          <mxGeometry x="520" y="610" width="170" height="222" as="geometry" />
        </mxCell>
        <mxCell id="NpS8czq447sHkz6InZv8-62" value="+ Vehículo: Vehículo" style="text;strokeColor=none;fillColor=none;align=left;verticalAlign=middle;spacingLeft=4;spacingRight=4;overflow=hidden;rotatable=0;points=[[0,0.5],[1,0.5]];portConstraint=eastwest;" parent="NpS8czq447sHkz6InZv8-61" vertex="1">
          <mxGeometry y="26" width="170" height="20" as="geometry" />
        </mxCell>
        <mxCell id="NpS8czq447sHkz6InZv8-63" value="+ Fecha: datetime" style="text;strokeColor=none;fillColor=none;align=left;verticalAlign=middle;spacingLeft=4;spacingRight=4;overflow=hidden;rotatable=0;points=[[0,0.5],[1,0.5]];portConstraint=eastwest;" parent="NpS8czq447sHkz6InZv8-61" vertex="1">
          <mxGeometry y="46" width="170" height="20" as="geometry" />
        </mxCell>
        <mxCell id="NpS8czq447sHkz6InZv8-65" value="+ Progreso: integer" style="text;strokeColor=none;fillColor=none;align=left;verticalAlign=middle;spacingLeft=4;spacingRight=4;overflow=hidden;rotatable=0;points=[[0,0.5],[1,0.5]];portConstraint=eastwest;" parent="NpS8czq447sHkz6InZv8-61" vertex="1">
          <mxGeometry y="66" width="170" height="20" as="geometry" />
        </mxCell>
        <mxCell id="NpS8czq447sHkz6InZv8-78" value="+ Estado: varchar" style="text;strokeColor=none;fillColor=none;align=left;verticalAlign=middle;spacingLeft=4;spacingRight=4;overflow=hidden;rotatable=0;points=[[0,0.5],[1,0.5]];portConstraint=eastwest;" parent="NpS8czq447sHkz6InZv8-61" vertex="1">
          <mxGeometry y="86" width="170" height="20" as="geometry" />
        </mxCell>
        <mxCell id="NpS8czq447sHkz6InZv8-66" value="+++" style="text;strokeColor=none;fillColor=none;align=left;verticalAlign=middle;spacingLeft=4;spacingRight=4;overflow=hidden;rotatable=0;points=[[0,0.5],[1,0.5]];portConstraint=eastwest;fontSize=12;horizontal=1;labelPosition=center;verticalLabelPosition=middle;textDirection=ltr;labelBackgroundColor=none;labelBorderColor=none;whiteSpace=wrap;" parent="NpS8czq447sHkz6InZv8-61" vertex="1">
          <mxGeometry y="106" width="170" height="15" as="geometry" />
        </mxCell>
        <mxCell id="NpS8czq447sHkz6InZv8-67" value="" style="line;strokeWidth=1;fillColor=none;align=left;verticalAlign=middle;spacingTop=-1;spacingLeft=3;spacingRight=3;rotatable=0;labelPosition=right;points=[];portConstraint=eastwest;" parent="NpS8czq447sHkz6InZv8-61" vertex="1">
          <mxGeometry y="121" width="170" height="1" as="geometry" />
        </mxCell>
        <mxCell id="NpS8czq447sHkz6InZv8-68" value="+ asignarProductos()" style="text;strokeColor=none;fillColor=none;align=left;verticalAlign=middle;spacingLeft=4;spacingRight=4;overflow=hidden;rotatable=0;points=[[0,0.5],[1,0.5]];portConstraint=eastwest;" parent="NpS8czq447sHkz6InZv8-61" vertex="1">
          <mxGeometry y="122" width="170" height="20" as="geometry" />
        </mxCell>
        <mxCell id="NpS8czq447sHkz6InZv8-133" value="+ asignarServicio()" style="text;strokeColor=none;fillColor=none;align=left;verticalAlign=middle;spacingLeft=4;spacingRight=4;overflow=hidden;rotatable=0;points=[[0,0.5],[1,0.5]];portConstraint=eastwest;" parent="NpS8czq447sHkz6InZv8-61" vertex="1">
          <mxGeometry y="142" width="170" height="20" as="geometry" />
        </mxCell>
        <mxCell id="NpS8czq447sHkz6InZv8-134" value="+ cerrarOrden()" style="text;strokeColor=none;fillColor=none;align=left;verticalAlign=middle;spacingLeft=4;spacingRight=4;overflow=hidden;rotatable=0;points=[[0,0.5],[1,0.5]];portConstraint=eastwest;" parent="NpS8czq447sHkz6InZv8-61" vertex="1">
          <mxGeometry y="162" width="170" height="20" as="geometry" />
        </mxCell>
        <mxCell id="NpS8czq447sHkz6InZv8-135" value="+ avanceOrden()" style="text;strokeColor=none;fillColor=none;align=left;verticalAlign=middle;spacingLeft=4;spacingRight=4;overflow=hidden;rotatable=0;points=[[0,0.5],[1,0.5]];portConstraint=eastwest;" parent="NpS8czq447sHkz6InZv8-61" vertex="1">
          <mxGeometry y="182" width="170" height="20" as="geometry" />
        </mxCell>
        <mxCell id="NpS8czq447sHkz6InZv8-136" value="+ statusOrden()" style="text;strokeColor=none;fillColor=none;align=left;verticalAlign=middle;spacingLeft=4;spacingRight=4;overflow=hidden;rotatable=0;points=[[0,0.5],[1,0.5]];portConstraint=eastwest;" parent="NpS8czq447sHkz6InZv8-61" vertex="1">
          <mxGeometry y="202" width="170" height="20" as="geometry" />
        </mxCell>
        <mxCell id="NpS8czq447sHkz6InZv8-51" value="Vehículo" style="swimlane;fontStyle=1;align=center;verticalAlign=top;childLayout=stackLayout;horizontal=1;startSize=26;horizontalStack=0;resizeParent=1;resizeParentMax=0;resizeLast=0;collapsible=1;marginBottom=0;fillColor=#ffffff;gradientColor=#ffffff;" parent="3NEA08iB7-uPyu0g2pBj-1" vertex="1">
          <mxGeometry x="860" y="410" width="170" height="142" as="geometry" />
        </mxCell>
        <mxCell id="NpS8czq447sHkz6InZv8-52" value="+ Marca: varchar" style="text;strokeColor=none;fillColor=none;align=left;verticalAlign=middle;spacingLeft=4;spacingRight=4;overflow=hidden;rotatable=0;points=[[0,0.5],[1,0.5]];portConstraint=eastwest;" parent="NpS8czq447sHkz6InZv8-51" vertex="1">
          <mxGeometry y="26" width="170" height="20" as="geometry" />
        </mxCell>
        <mxCell id="NpS8czq447sHkz6InZv8-53" value="+ Modelo: varchar" style="text;strokeColor=none;fillColor=none;align=left;verticalAlign=middle;spacingLeft=4;spacingRight=4;overflow=hidden;rotatable=0;points=[[0,0.5],[1,0.5]];portConstraint=eastwest;" parent="NpS8czq447sHkz6InZv8-51" vertex="1">
          <mxGeometry y="46" width="170" height="20" as="geometry" />
        </mxCell>
        <mxCell id="NpS8czq447sHkz6InZv8-54" value="+ Color: varchar" style="text;strokeColor=none;fillColor=none;align=left;verticalAlign=middle;spacingLeft=4;spacingRight=4;overflow=hidden;rotatable=0;points=[[0,0.5],[1,0.5]];portConstraint=eastwest;" parent="NpS8czq447sHkz6InZv8-51" vertex="1">
          <mxGeometry y="66" width="170" height="20" as="geometry" />
        </mxCell>
        <mxCell id="NpS8czq447sHkz6InZv8-55" value="+ Placas: varchar" style="text;strokeColor=none;fillColor=none;align=left;verticalAlign=middle;spacingLeft=4;spacingRight=4;overflow=hidden;rotatable=0;points=[[0,0.5],[1,0.5]];portConstraint=eastwest;" parent="NpS8czq447sHkz6InZv8-51" vertex="1">
          <mxGeometry y="86" width="170" height="20" as="geometry" />
        </mxCell>
        <mxCell id="NpS8czq447sHkz6InZv8-56" value="+++" style="text;strokeColor=none;fillColor=none;align=left;verticalAlign=middle;spacingLeft=4;spacingRight=4;overflow=hidden;rotatable=0;points=[[0,0.5],[1,0.5]];portConstraint=eastwest;fontSize=12;horizontal=1;labelPosition=center;verticalLabelPosition=middle;textDirection=ltr;labelBackgroundColor=none;labelBorderColor=none;whiteSpace=wrap;" parent="NpS8czq447sHkz6InZv8-51" vertex="1">
          <mxGeometry y="106" width="170" height="15" as="geometry" />
        </mxCell>
        <mxCell id="NpS8czq447sHkz6InZv8-57" value="" style="line;strokeWidth=1;fillColor=none;align=left;verticalAlign=middle;spacingTop=-1;spacingLeft=3;spacingRight=3;rotatable=0;labelPosition=right;points=[];portConstraint=eastwest;" parent="NpS8czq447sHkz6InZv8-51" vertex="1">
          <mxGeometry y="121" width="170" height="1" as="geometry" />
        </mxCell>
        <mxCell id="NpS8czq447sHkz6InZv8-58" value="   " style="text;strokeColor=none;fillColor=none;align=left;verticalAlign=middle;spacingLeft=4;spacingRight=4;overflow=hidden;rotatable=0;points=[[0,0.5],[1,0.5]];portConstraint=eastwest;" parent="NpS8czq447sHkz6InZv8-51" vertex="1">
          <mxGeometry y="122" width="170" height="20" as="geometry" />
        </mxCell>
        <mxCell id="NpS8czq447sHkz6InZv8-102" value="Servicio" style="swimlane;fontStyle=1;align=center;verticalAlign=top;childLayout=stackLayout;horizontal=1;startSize=26;horizontalStack=0;resizeParent=1;resizeParentMax=0;resizeLast=0;collapsible=1;marginBottom=0;fillColor=#ffffff;gradientColor=#ffffff;" parent="3NEA08iB7-uPyu0g2pBj-1" vertex="1">
          <mxGeometry x="100" y="650" width="170" height="87" as="geometry" />
        </mxCell>
        <mxCell id="NpS8czq447sHkz6InZv8-103" value="+ Nombre: varchar" style="text;strokeColor=none;fillColor=none;align=left;verticalAlign=middle;spacingLeft=4;spacingRight=4;overflow=hidden;rotatable=0;points=[[0,0.5],[1,0.5]];portConstraint=eastwest;" parent="NpS8czq447sHkz6InZv8-102" vertex="1">
          <mxGeometry y="26" width="170" height="20" as="geometry" />
        </mxCell>
        <mxCell id="NpS8czq447sHkz6InZv8-104" value="+ Precio: double(7,2)" style="text;strokeColor=none;fillColor=none;align=left;verticalAlign=middle;spacingLeft=4;spacingRight=4;overflow=hidden;rotatable=0;points=[[0,0.5],[1,0.5]];portConstraint=eastwest;" parent="NpS8czq447sHkz6InZv8-102" vertex="1">
          <mxGeometry y="46" width="170" height="20" as="geometry" />
        </mxCell>
        <mxCell id="NpS8czq447sHkz6InZv8-110" value="" style="line;strokeWidth=1;fillColor=none;align=left;verticalAlign=middle;spacingTop=-1;spacingLeft=3;spacingRight=3;rotatable=0;labelPosition=right;points=[];portConstraint=eastwest;" parent="NpS8czq447sHkz6InZv8-102" vertex="1">
          <mxGeometry y="66" width="170" height="1" as="geometry" />
        </mxCell>
        <mxCell id="NpS8czq447sHkz6InZv8-111" value="   " style="text;strokeColor=none;fillColor=none;align=left;verticalAlign=middle;spacingLeft=4;spacingRight=4;overflow=hidden;rotatable=0;points=[[0,0.5],[1,0.5]];portConstraint=eastwest;" parent="NpS8czq447sHkz6InZv8-102" vertex="1">
          <mxGeometry y="67" width="170" height="20" as="geometry" />
        </mxCell>
        <mxCell id="NpS8czq447sHkz6InZv8-92" value="Producto" style="swimlane;fontStyle=1;align=center;verticalAlign=top;childLayout=stackLayout;horizontal=1;startSize=26;horizontalStack=0;resizeParent=1;resizeParentMax=0;resizeLast=0;collapsible=1;marginBottom=0;fillColor=#ffffff;gradientColor=#ffffff;" parent="3NEA08iB7-uPyu0g2pBj-1" vertex="1">
          <mxGeometry x="100" y="457" width="170" height="127" as="geometry" />
        </mxCell>
        <mxCell id="NpS8czq447sHkz6InZv8-93" value="+ Nombre: varchar" style="text;strokeColor=none;fillColor=none;align=left;verticalAlign=middle;spacingLeft=4;spacingRight=4;overflow=hidden;rotatable=0;points=[[0,0.5],[1,0.5]];portConstraint=eastwest;" parent="NpS8czq447sHkz6InZv8-92" vertex="1">
          <mxGeometry y="26" width="170" height="20" as="geometry" />
        </mxCell>
        <mxCell id="NpS8czq447sHkz6InZv8-94" value="+ Fecha: datetime" style="text;strokeColor=none;fillColor=none;align=left;verticalAlign=middle;spacingLeft=4;spacingRight=4;overflow=hidden;rotatable=0;points=[[0,0.5],[1,0.5]];portConstraint=eastwest;" parent="NpS8czq447sHkz6InZv8-92" vertex="1">
          <mxGeometry y="46" width="170" height="20" as="geometry" />
        </mxCell>
        <mxCell id="NpS8czq447sHkz6InZv8-95" value="+ Costo: double(7,2)" style="text;strokeColor=none;fillColor=none;align=left;verticalAlign=middle;spacingLeft=4;spacingRight=4;overflow=hidden;rotatable=0;points=[[0,0.5],[1,0.5]];portConstraint=eastwest;" parent="NpS8czq447sHkz6InZv8-92" vertex="1">
          <mxGeometry y="66" width="170" height="20" as="geometry" />
        </mxCell>
        <mxCell id="NpS8czq447sHkz6InZv8-96" value="+ Precio: double(7,2)" style="text;strokeColor=none;fillColor=none;align=left;verticalAlign=middle;spacingLeft=4;spacingRight=4;overflow=hidden;rotatable=0;points=[[0,0.5],[1,0.5]];portConstraint=eastwest;" parent="NpS8czq447sHkz6InZv8-92" vertex="1">
          <mxGeometry y="86" width="170" height="20" as="geometry" />
        </mxCell>
        <mxCell id="NpS8czq447sHkz6InZv8-100" value="" style="line;strokeWidth=1;fillColor=none;align=left;verticalAlign=middle;spacingTop=-1;spacingLeft=3;spacingRight=3;rotatable=0;labelPosition=right;points=[];portConstraint=eastwest;" parent="NpS8czq447sHkz6InZv8-92" vertex="1">
          <mxGeometry y="106" width="170" height="1" as="geometry" />
        </mxCell>
        <mxCell id="NpS8czq447sHkz6InZv8-101" value="   " style="text;strokeColor=none;fillColor=none;align=left;verticalAlign=middle;spacingLeft=4;spacingRight=4;overflow=hidden;rotatable=0;points=[[0,0.5],[1,0.5]];portConstraint=eastwest;" parent="NpS8czq447sHkz6InZv8-92" vertex="1">
          <mxGeometry y="107" width="170" height="20" as="geometry" />
        </mxCell>
        <mxCell id="AcMNE2pFFCveSsyDQFpb-30" value="Contiene" style="edgeStyle=orthogonalEdgeStyle;rounded=0;orthogonalLoop=1;jettySize=auto;html=1;startArrow=none;startFill=0;endArrow=none;endFill=0;" parent="3NEA08iB7-uPyu0g2pBj-1" source="NpS8czq447sHkz6InZv8-137" target="AcMNE2pFFCveSsyDQFpb-0" edge="1">
          <mxGeometry x="-0.5818" relative="1" as="geometry">
            <mxPoint as="offset" />
          </mxGeometry>
        </mxCell>
        <mxCell id="AcMNE2pFFCveSsyDQFpb-38" value="1" style="edgeLabel;html=1;align=center;verticalAlign=middle;resizable=0;points=[];" parent="AcMNE2pFFCveSsyDQFpb-30" vertex="1" connectable="0">
          <mxGeometry x="-0.8888" y="-2" relative="1" as="geometry">
            <mxPoint x="7" as="offset" />
          </mxGeometry>
        </mxCell>
        <mxCell id="AcMNE2pFFCveSsyDQFpb-39" value="1 .. *" style="edgeLabel;html=1;align=center;verticalAlign=middle;resizable=0;points=[];" parent="AcMNE2pFFCveSsyDQFpb-30" vertex="1" connectable="0">
          <mxGeometry x="0.8047" y="-1" relative="1" as="geometry">
            <mxPoint x="16" y="3.83" as="offset" />
          </mxGeometry>
        </mxCell>
        <mxCell id="AcMNE2pFFCveSsyDQFpb-32" style="edgeStyle=orthogonalEdgeStyle;rounded=0;orthogonalLoop=1;jettySize=auto;html=1;startArrow=none;startFill=0;endArrow=none;endFill=0;" parent="3NEA08iB7-uPyu0g2pBj-1" source="NpS8czq447sHkz6InZv8-137" target="AcMNE2pFFCveSsyDQFpb-14" edge="1">
          <mxGeometry relative="1" as="geometry">
            <Array as="points">
              <mxPoint x="430" y="844" />
              <mxPoint x="430" y="964" />
            </Array>
          </mxGeometry>
        </mxCell>
        <mxCell id="AcMNE2pFFCveSsyDQFpb-36" value="*" style="edgeLabel;html=1;align=center;verticalAlign=middle;resizable=0;points=[];" parent="AcMNE2pFFCveSsyDQFpb-32" vertex="1" connectable="0">
          <mxGeometry x="-0.8871" y="2" relative="1" as="geometry">
            <mxPoint x="-10.33" y="-5.5" as="offset" />
          </mxGeometry>
        </mxCell>
        <mxCell id="NpS8czq447sHkz6InZv8-137" value="Pregunta" style="swimlane;fontStyle=1;align=center;verticalAlign=top;childLayout=stackLayout;horizontal=1;startSize=26;horizontalStack=0;resizeParent=1;resizeParentMax=0;resizeLast=0;collapsible=1;marginBottom=0;fillColor=#ffffff;gradientColor=#ffffff;" parent="3NEA08iB7-uPyu0g2pBj-1" vertex="1">
          <mxGeometry x="100" y="790" width="170" height="107" as="geometry" />
        </mxCell>
        <mxCell id="NpS8czq447sHkz6InZv8-138" value="+ Pregunta: varchar" style="text;strokeColor=none;fillColor=none;align=left;verticalAlign=middle;spacingLeft=4;spacingRight=4;overflow=hidden;rotatable=0;points=[[0,0.5],[1,0.5]];portConstraint=eastwest;" parent="NpS8czq447sHkz6InZv8-137" vertex="1">
          <mxGeometry y="26" width="170" height="20" as="geometry" />
        </mxCell>
        <mxCell id="NpS8czq447sHkz6InZv8-139" value="+ Fecha: datetime" style="text;strokeColor=none;fillColor=none;align=left;verticalAlign=middle;spacingLeft=4;spacingRight=4;overflow=hidden;rotatable=0;points=[[0,0.5],[1,0.5]];portConstraint=eastwest;" parent="NpS8czq447sHkz6InZv8-137" vertex="1">
          <mxGeometry y="46" width="170" height="20" as="geometry" />
        </mxCell>
        <mxCell id="AcMNE2pFFCveSsyDQFpb-29" value="+ Tipo: varchar" style="text;strokeColor=none;fillColor=none;align=left;verticalAlign=middle;spacingLeft=4;spacingRight=4;overflow=hidden;rotatable=0;points=[[0,0.5],[1,0.5]];portConstraint=eastwest;" parent="NpS8czq447sHkz6InZv8-137" vertex="1">
          <mxGeometry y="66" width="170" height="20" as="geometry" />
        </mxCell>
        <mxCell id="NpS8czq447sHkz6InZv8-145" value="" style="line;strokeWidth=1;fillColor=none;align=left;verticalAlign=middle;spacingTop=-1;spacingLeft=3;spacingRight=3;rotatable=0;labelPosition=right;points=[];portConstraint=eastwest;" parent="NpS8czq447sHkz6InZv8-137" vertex="1">
          <mxGeometry y="86" width="170" height="1" as="geometry" />
        </mxCell>
        <mxCell id="NpS8czq447sHkz6InZv8-147" value=" " style="text;strokeColor=none;fillColor=none;align=left;verticalAlign=middle;spacingLeft=4;spacingRight=4;overflow=hidden;rotatable=0;points=[[0,0.5],[1,0.5]];portConstraint=eastwest;" parent="NpS8czq447sHkz6InZv8-137" vertex="1">
          <mxGeometry y="87" width="170" height="20" as="geometry" />
        </mxCell>
        <mxCell id="AcMNE2pFFCveSsyDQFpb-33" style="edgeStyle=orthogonalEdgeStyle;rounded=0;orthogonalLoop=1;jettySize=auto;html=1;startArrow=none;startFill=0;endArrow=none;endFill=0;" parent="3NEA08iB7-uPyu0g2pBj-1" source="AcMNE2pFFCveSsyDQFpb-0" target="AcMNE2pFFCveSsyDQFpb-14" edge="1">
          <mxGeometry relative="1" as="geometry">
            <Array as="points">
              <mxPoint x="430" y="1041" />
              <mxPoint x="430" y="964" />
            </Array>
          </mxGeometry>
        </mxCell>
        <mxCell id="AcMNE2pFFCveSsyDQFpb-35" value="*" style="edgeLabel;html=1;align=center;verticalAlign=middle;resizable=0;points=[];" parent="AcMNE2pFFCveSsyDQFpb-33" vertex="1" connectable="0">
          <mxGeometry x="0.9192" y="2" relative="1" as="geometry">
            <mxPoint x="2.83" y="-6" as="offset" />
          </mxGeometry>
        </mxCell>
        <mxCell id="AcMNE2pFFCveSsyDQFpb-42" value="Contiene" style="edgeLabel;html=1;align=center;verticalAlign=middle;resizable=0;points=[];" parent="AcMNE2pFFCveSsyDQFpb-33" vertex="1" connectable="0">
          <mxGeometry x="0.6361" relative="1" as="geometry">
            <mxPoint as="offset" />
          </mxGeometry>
        </mxCell>
        <mxCell id="AcMNE2pFFCveSsyDQFpb-43" value="*" style="edgeLabel;html=1;align=center;verticalAlign=middle;resizable=0;points=[];" parent="AcMNE2pFFCveSsyDQFpb-33" vertex="1" connectable="0">
          <mxGeometry x="-0.8983" relative="1" as="geometry">
            <mxPoint x="-6.67" y="-10.5" as="offset" />
          </mxGeometry>
        </mxCell>
        <mxCell id="AcMNE2pFFCveSsyDQFpb-0" value="Opcion" style="swimlane;fontStyle=1;align=center;verticalAlign=top;childLayout=stackLayout;horizontal=1;startSize=26;horizontalStack=0;resizeParent=1;resizeParentMax=0;resizeLast=0;collapsible=1;marginBottom=0;fillColor=#ffffff;gradientColor=#ffffff;" parent="3NEA08iB7-uPyu0g2pBj-1" vertex="1">
          <mxGeometry x="100" y="1007" width="170" height="67" as="geometry" />
        </mxCell>
        <mxCell id="AcMNE2pFFCveSsyDQFpb-2" value="+ Nombre: varchar" style="text;strokeColor=none;fillColor=none;align=left;verticalAlign=middle;spacingLeft=4;spacingRight=4;overflow=hidden;rotatable=0;points=[[0,0.5],[1,0.5]];portConstraint=eastwest;" parent="AcMNE2pFFCveSsyDQFpb-0" vertex="1">
          <mxGeometry y="26" width="170" height="20" as="geometry" />
        </mxCell>
        <mxCell id="AcMNE2pFFCveSsyDQFpb-8" value="" style="line;strokeWidth=1;fillColor=none;align=left;verticalAlign=middle;spacingTop=-1;spacingLeft=3;spacingRight=3;rotatable=0;labelPosition=right;points=[];portConstraint=eastwest;" parent="AcMNE2pFFCveSsyDQFpb-0" vertex="1">
          <mxGeometry y="46" width="170" height="1" as="geometry" />
        </mxCell>
        <mxCell id="AcMNE2pFFCveSsyDQFpb-10" value=" " style="text;strokeColor=none;fillColor=none;align=left;verticalAlign=middle;spacingLeft=4;spacingRight=4;overflow=hidden;rotatable=0;points=[[0,0.5],[1,0.5]];portConstraint=eastwest;" parent="AcMNE2pFFCveSsyDQFpb-0" vertex="1">
          <mxGeometry y="47" width="170" height="20" as="geometry" />
        </mxCell>
        <mxCell id="AcMNE2pFFCveSsyDQFpb-14" value="Encuesta" style="swimlane;fontStyle=1;align=center;verticalAlign=top;childLayout=stackLayout;horizontal=1;startSize=26;horizontalStack=0;resizeParent=1;resizeParentMax=0;resizeLast=0;collapsible=1;marginBottom=0;fillColor=#ffffff;gradientColor=#ffffff;" parent="3NEA08iB7-uPyu0g2pBj-1" vertex="1">
          <mxGeometry x="520" y="920" width="170" height="107" as="geometry" />
        </mxCell>
        <mxCell id="AcMNE2pFFCveSsyDQFpb-37" value="+ Fecha: datetime" style="text;strokeColor=none;fillColor=none;align=left;verticalAlign=middle;spacingLeft=4;spacingRight=4;overflow=hidden;rotatable=0;points=[[0,0.5],[1,0.5]];portConstraint=eastwest;" parent="AcMNE2pFFCveSsyDQFpb-14" vertex="1">
          <mxGeometry y="26" width="170" height="20" as="geometry" />
        </mxCell>
        <mxCell id="AcMNE2pFFCveSsyDQFpb-16" value="+ Fecha: datetime" style="text;strokeColor=none;fillColor=none;align=left;verticalAlign=middle;spacingLeft=4;spacingRight=4;overflow=hidden;rotatable=0;points=[[0,0.5],[1,0.5]];portConstraint=eastwest;" parent="AcMNE2pFFCveSsyDQFpb-14" vertex="1">
          <mxGeometry y="46" width="170" height="20" as="geometry" />
        </mxCell>
        <mxCell id="AcMNE2pFFCveSsyDQFpb-31" value="+ Respuestas: integer[]" style="text;strokeColor=none;fillColor=none;align=left;verticalAlign=middle;spacingLeft=4;spacingRight=4;overflow=hidden;rotatable=0;points=[[0,0.5],[1,0.5]];portConstraint=eastwest;" parent="AcMNE2pFFCveSsyDQFpb-14" vertex="1">
          <mxGeometry y="66" width="170" height="20" as="geometry" />
        </mxCell>
        <mxCell id="AcMNE2pFFCveSsyDQFpb-22" value="" style="line;strokeWidth=1;fillColor=none;align=left;verticalAlign=middle;spacingTop=-1;spacingLeft=3;spacingRight=3;rotatable=0;labelPosition=right;points=[];portConstraint=eastwest;" parent="AcMNE2pFFCveSsyDQFpb-14" vertex="1">
          <mxGeometry y="86" width="170" height="1" as="geometry" />
        </mxCell>
        <mxCell id="AcMNE2pFFCveSsyDQFpb-23" value=" " style="text;strokeColor=none;fillColor=none;align=left;verticalAlign=middle;spacingLeft=4;spacingRight=4;overflow=hidden;rotatable=0;points=[[0,0.5],[1,0.5]];portConstraint=eastwest;" parent="AcMNE2pFFCveSsyDQFpb-14" vertex="1">
          <mxGeometry y="87" width="170" height="20" as="geometry" />
        </mxCell>
      </root>
    </mxGraphModel>
  </diagram>
</mxfile>
